<svg width="108" height="24" viewBox="0 0 108 24" fill="none" xmlns="http://www.w3.org/2000/svg">
<path d="M17.5172 12.5555C17.5078 10.957 18.232 9.75234 19.6945 8.86406C18.8766 7.69219 17.6391 7.04766 16.0078 6.92344C14.4633 6.80156 12.7734 7.82344 12.1547 7.82344C11.5008 7.82344 10.0055 6.96563 8.82891 6.96563C6.40078 7.00313 3.82031 8.90156 3.82031 12.7641C3.82031 13.9055 4.02891 15.0844 4.44609 16.2984C5.00391 17.8969 7.01484 21.8133 9.1125 21.75C10.2094 21.7242 10.9852 20.9719 12.4125 20.9719C13.7977 20.9719 14.5148 21.75 15.7383 21.75C17.8547 21.7195 19.6734 18.1594 20.2031 16.5563C17.3648 15.218 17.5172 12.6375 17.5172 12.5555ZM15.0539 5.40703C16.2422 3.99609 16.1344 2.71172 16.0992 2.25C15.0492 2.31094 13.8352 2.96484 13.1437 3.76875C12.382 4.63125 11.9344 5.69766 12.0305 6.9C13.1648 6.98672 14.2008 6.40313 15.0539 5.40703Z" fill="#9E9E9E"/>
<path d="M33.8864 17H32.4091L36.6818 5.36364H38.1364L42.4091 17H40.9318L37.4545 7.20455H37.3636L33.8864 17ZM34.4318 12.4545H40.3864V13.7045H34.4318V12.4545ZM44.0398 20.2727V8.27273H45.3352V9.65909H45.4943C45.5928 9.50758 45.7292 9.31439 45.9034 9.07955C46.0814 8.84091 46.3352 8.62879 46.6648 8.44318C46.9981 8.25379 47.4489 8.15909 48.017 8.15909C48.7519 8.15909 49.3996 8.3428 49.9602 8.71023C50.5208 9.07765 50.9583 9.59848 51.2727 10.2727C51.5871 10.947 51.7443 11.7424 51.7443 12.6591C51.7443 13.5833 51.5871 14.3845 51.2727 15.0625C50.9583 15.7367 50.5227 16.2595 49.9659 16.6307C49.4091 16.9981 48.767 17.1818 48.0398 17.1818C47.4792 17.1818 47.0303 17.089 46.6932 16.9034C46.3561 16.714 46.0966 16.5 45.9148 16.2614C45.733 16.0189 45.5928 15.8182 45.4943 15.6591H45.3807V20.2727H44.0398ZM45.358 12.6364C45.358 13.2955 45.4545 13.8769 45.6477 14.3807C45.8409 14.8807 46.1231 15.2727 46.4943 15.5568C46.8655 15.8371 47.3201 15.9773 47.858 15.9773C48.4186 15.9773 48.8864 15.8295 49.2614 15.5341C49.6402 15.2348 49.9242 14.8333 50.1136 14.3295C50.3068 13.822 50.4034 13.2576 50.4034 12.6364C50.4034 12.0227 50.3087 11.4697 50.1193 10.9773C49.9337 10.4811 49.6515 10.089 49.2727 9.80114C48.8977 9.50947 48.4261 9.36364 47.858 9.36364C47.3125 9.36364 46.8542 9.50189 46.483 9.77841C46.1117 10.0511 45.8314 10.4337 45.642 10.9261C45.4527 11.4148 45.358 11.9848 45.358 12.6364ZM53.7898 20.2727V8.27273H55.0852V9.65909H55.2443C55.3428 9.50758 55.4792 9.31439 55.6534 9.07955C55.8314 8.84091 56.0852 8.62879 56.4148 8.44318C56.7481 8.25379 57.1989 8.15909 57.767 8.15909C58.5019 8.15909 59.1496 8.3428 59.7102 8.71023C60.2708 9.07765 60.7083 9.59848 61.0227 10.2727C61.3371 10.947 61.4943 11.7424 61.4943 12.6591C61.4943 13.5833 61.3371 14.3845 61.0227 15.0625C60.7083 15.7367 60.2727 16.2595 59.7159 16.6307C59.1591 16.9981 58.517 17.1818 57.7898 17.1818C57.2292 17.1818 56.7803 17.089 56.4432 16.9034C56.1061 16.714 55.8466 16.5 55.6648 16.2614C55.483 16.0189 55.3428 15.8182 55.2443 15.6591H55.1307V20.2727H53.7898ZM55.108 12.6364C55.108 13.2955 55.2045 13.8769 55.3977 14.3807C55.5909 14.8807 55.8731 15.2727 56.2443 15.5568C56.6155 15.8371 57.0701 15.9773 57.608 15.9773C58.1686 15.9773 58.6364 15.8295 59.0114 15.5341C59.3902 15.2348 59.6742 14.8333 59.8636 14.3295C60.0568 13.822 60.1534 13.2576 60.1534 12.6364C60.1534 12.0227 60.0587 11.4697 59.8693 10.9773C59.6837 10.4811 59.4015 10.089 59.0227 9.80114C58.6477 9.50947 58.1761 9.36364 57.608 9.36364C57.0625 9.36364 56.6042 9.50189 56.233 9.77841C55.8617 10.0511 55.5814 10.4337 55.392 10.9261C55.2027 11.4148 55.108 11.9848 55.108 12.6364ZM74.5852 8.27273C74.517 7.69697 74.2405 7.25 73.7557 6.93182C73.2708 6.61364 72.6761 6.45455 71.9716 6.45455C71.4564 6.45455 71.0057 6.53788 70.6193 6.70455C70.2367 6.87121 69.9375 7.10038 69.7216 7.39205C69.5095 7.68371 69.4034 8.01515 69.4034 8.38636C69.4034 8.69697 69.4773 8.96401 69.625 9.1875C69.7765 9.4072 69.9697 9.59091 70.2045 9.73864C70.4394 9.88258 70.6856 10.0019 70.9432 10.0966C71.2008 10.1875 71.4375 10.2614 71.6534 10.3182L72.8352 10.6364C73.1383 10.7159 73.4754 10.8258 73.8466 10.9659C74.2216 11.1061 74.5795 11.2973 74.9205 11.5398C75.2652 11.7784 75.5492 12.0852 75.7727 12.4602C75.9962 12.8352 76.108 13.2955 76.108 13.8409C76.108 14.4697 75.9432 15.0379 75.6136 15.5455C75.2879 16.053 74.8106 16.4564 74.1818 16.7557C73.5568 17.0549 72.7973 17.2045 71.9034 17.2045C71.0701 17.2045 70.3485 17.0701 69.7386 16.8011C69.1326 16.5322 68.6553 16.1572 68.3068 15.6761C67.9621 15.1951 67.767 14.6364 67.7216 14H69.1761C69.214 14.4394 69.3617 14.803 69.6193 15.0909C69.8807 15.375 70.2102 15.5871 70.608 15.7273C71.0095 15.8636 71.4413 15.9318 71.9034 15.9318C72.4413 15.9318 72.9242 15.8447 73.3523 15.6705C73.7803 15.4924 74.1193 15.2462 74.3693 14.9318C74.6193 14.6136 74.7443 14.2424 74.7443 13.8182C74.7443 13.4318 74.6364 13.1174 74.4205 12.875C74.2045 12.6326 73.9205 12.4356 73.5682 12.2841C73.2159 12.1326 72.8352 12 72.4261 11.8864L70.9943 11.4773C70.0852 11.2159 69.3655 10.8428 68.8352 10.358C68.3049 9.87311 68.0398 9.23864 68.0398 8.45455C68.0398 7.80303 68.2159 7.23485 68.5682 6.75C68.9242 6.26136 69.4015 5.88258 70 5.61364C70.6023 5.34091 71.2746 5.20455 72.017 5.20455C72.767 5.20455 73.4337 5.33901 74.017 5.60795C74.6004 5.87311 75.0625 6.23674 75.4034 6.69886C75.7481 7.16098 75.9299 7.68561 75.9489 8.27273H74.5852ZM82.0384 8.27273V9.40909H77.5156V8.27273H82.0384ZM78.8338 6.18182H80.1747V14.5C80.1747 14.8788 80.2296 15.1629 80.3395 15.3523C80.4531 15.5379 80.5971 15.6629 80.7713 15.7273C80.9493 15.7879 81.1368 15.8182 81.3338 15.8182C81.4815 15.8182 81.6027 15.8106 81.6974 15.7955C81.7921 15.7765 81.8679 15.7614 81.9247 15.75L82.1974 16.9545C82.1065 16.9886 81.9796 17.0227 81.8168 17.0568C81.6539 17.0947 81.4474 17.1136 81.1974 17.1136C80.8187 17.1136 80.4474 17.0322 80.0838 16.8693C79.724 16.7064 79.4247 16.4583 79.1861 16.125C78.9512 15.7917 78.8338 15.3712 78.8338 14.8636V6.18182ZM87.5071 17.1818C86.7192 17.1818 86.0279 16.9943 85.4332 16.6193C84.8423 16.2443 84.3802 15.7197 84.0469 15.0455C83.7173 14.3712 83.5526 13.5833 83.5526 12.6818C83.5526 11.7727 83.7173 10.9792 84.0469 10.3011C84.3802 9.62311 84.8423 9.09659 85.4332 8.72159C86.0279 8.34659 86.7192 8.15909 87.5071 8.15909C88.295 8.15909 88.9844 8.34659 89.5753 8.72159C90.17 9.09659 90.6321 9.62311 90.9616 10.3011C91.295 10.9792 91.4616 11.7727 91.4616 12.6818C91.4616 13.5833 91.295 14.3712 90.9616 15.0455C90.6321 15.7197 90.17 16.2443 89.5753 16.6193C88.9844 16.9943 88.295 17.1818 87.5071 17.1818ZM87.5071 15.9773C88.1056 15.9773 88.598 15.8239 88.9844 15.517C89.3707 15.2102 89.6567 14.8068 89.8423 14.3068C90.0279 13.8068 90.1207 13.2652 90.1207 12.6818C90.1207 12.0985 90.0279 11.5549 89.8423 11.0511C89.6567 10.5473 89.3707 10.1402 88.9844 9.82955C88.598 9.51894 88.1056 9.36364 87.5071 9.36364C86.9086 9.36364 86.4162 9.51894 86.0298 9.82955C85.6435 10.1402 85.3575 10.5473 85.1719 11.0511C84.9863 11.5549 84.8935 12.0985 84.8935 12.6818C84.8935 13.2652 84.9863 13.8068 85.1719 14.3068C85.3575 14.8068 85.6435 15.2102 86.0298 15.517C86.4162 15.8239 86.9086 15.9773 87.5071 15.9773ZM93.5085 17V8.27273H94.804V9.59091H94.8949C95.054 9.15909 95.3419 8.80871 95.7585 8.53977C96.1752 8.27083 96.6449 8.13636 97.1676 8.13636C97.2661 8.13636 97.3892 8.13826 97.5369 8.14205C97.6847 8.14583 97.7964 8.15152 97.8722 8.15909V9.52273C97.8267 9.51136 97.7225 9.49432 97.5597 9.47159C97.4006 9.44508 97.232 9.43182 97.054 9.43182C96.6297 9.43182 96.2509 9.52083 95.9176 9.69886C95.5881 9.87311 95.3267 10.1155 95.1335 10.4261C94.9441 10.733 94.8494 11.0833 94.8494 11.4773V17H93.5085ZM102.855 17.1818C102.014 17.1818 101.289 16.9962 100.679 16.625C100.073 16.25 99.6051 15.7273 99.2756 15.0568C98.9498 14.3826 98.7869 13.5985 98.7869 12.7045C98.7869 11.8106 98.9498 11.0227 99.2756 10.3409C99.6051 9.6553 100.063 9.12121 100.651 8.73864C101.241 8.35227 101.931 8.15909 102.719 8.15909C103.173 8.15909 103.622 8.23485 104.065 8.38636C104.509 8.53788 104.912 8.78409 105.276 9.125C105.639 9.46212 105.929 9.90909 106.145 10.4659C106.361 11.0227 106.469 11.7083 106.469 12.5227V13.0909H99.7415V11.9318H105.105C105.105 11.4394 105.007 11 104.81 10.6136C104.616 10.2273 104.34 9.92235 103.98 9.69886C103.624 9.47538 103.204 9.36364 102.719 9.36364C102.185 9.36364 101.723 9.49621 101.332 9.76136C100.946 10.0227 100.649 10.3636 100.44 10.7841C100.232 11.2045 100.128 11.6553 100.128 12.1364V12.9091C100.128 13.5682 100.241 14.1269 100.469 14.5852C100.7 15.0398 101.02 15.3864 101.429 15.625C101.838 15.8598 102.313 15.9773 102.855 15.9773C103.207 15.9773 103.526 15.928 103.81 15.8295C104.098 15.7273 104.346 15.5758 104.554 15.375C104.762 15.1705 104.923 14.9167 105.037 14.6136L106.332 14.9773C106.196 15.4167 105.967 15.803 105.645 16.1364C105.323 16.4659 104.925 16.7235 104.452 16.9091C103.978 17.0909 103.446 17.1818 102.855 17.1818Z" fill="#3A3A3A"/>
</svg>
