<svg width="156" height="50" viewBox="0 0 156 50" fill="none" xmlns="http://www.w3.org/2000/svg">
<g clip-path="url(#clip0_200_1169)">
<path d="M143.577 0.0001625H12.4299C11.9518 0.0001625 11.4795 0.0001625 11.0027 0.0026625C10.6036 0.0051625 10.2077 0.012425 9.80475 0.0185375C8.92936 0.0284148 8.05604 0.102258 7.19236 0.239425C6.3299 0.379578 5.49446 0.643807 4.71428 1.02318C3.93507 1.40575 3.22307 1.90287 2.60413 2.4965C1.98194 3.08846 1.4633 3.77268 1.06815 4.52286C0.671901 5.27155 0.397144 6.07384 0.253364 6.90201C0.108217 7.72914 0.0301122 8.56581 0.0197503 9.40451C0.00765242 9.78776 0.00637485 10.1723 0 10.5556V39.4484C0.00637485 39.8365 0.00765242 40.2125 0.0197503 40.6008C0.0301154 41.4394 0.10822 42.2761 0.253364 43.1032C0.396747 43.9318 0.67152 44.7346 1.06815 45.4835C1.46312 46.2313 1.98184 46.9127 2.60413 47.5014C3.22072 48.0977 3.93318 48.5951 4.71428 48.9748C5.49445 49.3552 6.3298 49.621 7.19236 49.7633C8.05619 49.8994 8.92942 49.9732 9.80475 49.9843C10.2077 49.9928 10.6036 49.9977 11.0027 49.9977C11.4795 50.0002 11.9519 50.0002 12.4299 50.0002H143.577C144.046 50.0002 144.522 50.0002 144.99 49.9977C145.388 49.9977 145.795 49.9928 146.192 49.9843C147.066 49.9738 147.937 49.8999 148.799 49.7633C149.665 49.62 150.503 49.3542 151.287 48.9748C152.067 48.5949 152.779 48.0975 153.395 47.5014C154.016 46.9104 154.536 46.2295 154.936 45.4835C155.329 44.734 155.602 43.9313 155.743 43.1032C155.888 42.276 155.969 41.4395 155.985 40.6008C155.99 40.2125 155.99 39.8365 155.99 39.4484C156 38.9943 156 38.5427 156 38.0812V11.9203C156 11.4626 156 11.0085 155.99 10.5556C155.99 10.1723 155.99 9.78776 155.985 9.40446C155.969 8.56569 155.888 7.72921 155.743 6.90196C155.601 6.07426 155.329 5.27204 154.936 4.52281C154.131 3.01916 152.855 1.79519 151.287 1.02306C150.503 0.644622 149.665 0.380463 148.799 0.239312C147.938 0.101541 147.066 0.0276722 146.192 0.0183625C145.795 0.0122625 145.388 0.0049375 144.99 0.0025C144.522 0 144.046 0 143.577 0V0.0001625Z" fill="#A6A6A6"/>
<path d="M11.0097 48.9062C10.6125 48.9062 10.2249 48.9014 9.83079 48.8929C9.01442 48.8827 8.19996 48.8145 7.39409 48.689C6.64265 48.5649 5.91471 48.3341 5.23428 48.0041C4.56009 47.6769 3.94517 47.2478 3.41308 46.7334C2.8733 46.225 2.4239 45.6353 2.0827 44.9877C1.73774 44.336 1.499 43.6374 1.37481 42.9162C1.2407 42.1414 1.16814 41.3579 1.15776 40.5725C1.14949 40.3089 1.13867 39.4311 1.13867 39.4311V10.5554C1.13867 10.5554 1.1502 9.69116 1.15782 9.43725C1.16776 8.6531 1.2399 7.87082 1.37362 7.09716C1.49803 6.37406 1.73695 5.67344 2.0821 5.01954C2.42204 4.37243 2.86895 3.78233 3.40548 3.2721C3.94142 2.75703 4.5583 2.32576 5.23364 1.99401C5.91251 1.66512 6.63908 1.43592 7.38899 1.31409C8.19751 1.1873 9.0148 1.11875 9.834 1.10901L11.0103 1.09375H144.984L146.175 1.10963C146.987 1.11887 147.796 1.18681 148.598 1.31286C149.355 1.43622 150.089 1.66702 150.776 1.99767C152.129 2.66623 153.23 3.72395 153.924 5.02259C154.264 5.67197 154.499 6.36688 154.622 7.08374C154.757 7.86374 154.833 8.65217 154.848 9.44275C154.852 9.79675 154.852 10.177 154.852 10.5554C154.862 11.0242 154.862 11.4703 154.862 11.9202V38.081C154.862 38.5351 154.862 38.9782 154.852 39.425C154.852 39.8315 154.852 40.2039 154.847 40.5871C154.832 41.3636 154.757 42.138 154.624 42.904C154.503 43.6303 154.265 44.3344 153.92 44.9915C153.577 45.632 153.13 46.2166 152.596 46.7236C152.064 47.2408 151.448 47.6724 150.772 48.0017C150.087 48.3342 149.354 48.5659 148.598 48.689C147.792 48.8152 146.977 48.8833 146.161 48.8929C145.779 48.9014 145.379 48.9062 144.991 48.9062L143.578 48.9087L11.0097 48.9062Z" fill="black"/>
<path d="M32.29 25.3759C32.304 24.3326 32.5931 23.3096 33.1302 22.4022C33.6673 21.4947 34.4351 20.7323 35.3622 20.1858C34.7732 19.3794 33.9963 18.7157 33.0931 18.2475C32.1899 17.7793 31.1853 17.5195 30.1591 17.4887C27.9699 17.2684 25.8477 18.7448 24.7321 18.7448C23.595 18.7448 21.8774 17.5106 20.0279 17.5471C18.8316 17.5841 17.6657 17.9177 16.6438 18.5153C15.6219 19.1129 14.7788 19.9541 14.1968 20.9569C11.6755 25.1424 13.5561 31.2938 15.9713 34.677C17.1797 36.3337 18.5919 38.1843 20.4397 38.1186C22.248 38.0467 22.9233 37.013 25.106 37.013C27.2685 37.013 27.9021 38.1186 29.7874 38.0769C31.7277 38.0467 32.9502 36.4129 34.1162 34.7405C34.9844 33.56 35.6525 32.2554 36.0957 30.8749C34.9684 30.4177 34.0064 29.6525 33.3297 28.6746C32.6529 27.6967 32.2913 26.5495 32.29 25.3759Z" fill="white"/>
<path d="M28.7297 15.2637C29.7876 14.0459 30.3088 12.4807 30.1826 10.9004C28.5663 11.0632 27.0733 11.8039 26.0011 12.9749C25.4768 13.547 25.0753 14.2125 24.8195 14.9335C24.5636 15.6545 24.4585 16.4167 24.5101 17.1766C25.3185 17.1846 26.1183 17.0166 26.8492 16.6852C27.5801 16.3539 28.2231 15.8678 28.7297 15.2637Z" fill="white"/>
<path d="M55.1483 33.9246H48.9776L47.4957 38.1202H44.8821L50.7269 22.5977H53.4424L59.2871 38.1202H56.6289L55.1483 33.9246ZM49.6167 31.9886H54.508L52.0968 25.1795H52.0293L49.6167 31.9886Z" fill="white"/>
<path d="M71.91 32.4623C71.91 35.9792 69.9469 38.2387 66.9844 38.2387C66.2339 38.2763 65.4876 38.1105 64.8308 37.7604C64.174 37.4102 63.6334 36.8898 63.2708 36.2587H63.2147V41.8641H60.792V26.8031H63.1371V28.6854H63.1816C63.5609 28.0574 64.1107 27.5396 64.7725 27.1873C65.4343 26.835 66.1833 26.6613 66.9398 26.6847C69.9353 26.6847 71.91 28.9552 71.91 32.4623ZM69.4198 32.4623C69.4198 30.1711 68.1849 28.6647 66.3007 28.6647C64.4496 28.6647 63.2045 30.2028 63.2045 32.4623C63.2045 34.7426 64.4496 36.2697 66.3007 36.2697C68.1849 36.2697 69.4198 34.7743 69.4198 32.4623Z" fill="white"/>
<path d="M84.8997 32.4623C84.8997 35.9791 82.9366 38.2387 79.9741 38.2387C79.2237 38.2763 78.4773 38.1105 77.8206 37.7604C77.1638 37.4102 76.6231 36.8898 76.2605 36.2587H76.2044V41.8641H73.7817V26.8031H76.1268V28.6854H76.1713C76.5506 28.0573 77.1004 27.5396 77.7622 27.1873C78.424 26.835 79.173 26.6613 79.9295 26.6847C82.9251 26.6847 84.8997 28.9552 84.8997 32.4623ZM82.4095 32.4623C82.4095 30.171 81.1746 28.6647 79.2905 28.6647C77.4394 28.6647 76.1943 30.2028 76.1943 32.4623C76.1943 34.7426 77.4394 36.2697 79.2905 36.2697C81.1746 36.2697 82.4095 34.7743 82.4095 32.4623H82.4095Z" fill="white"/>
<path d="M93.4871 33.7952C93.6666 35.3345 95.2262 36.3452 97.3573 36.3452C99.3994 36.3452 100.869 35.3345 100.869 33.9465C100.869 32.7417 99.9824 32.0203 97.8844 31.5259L95.7863 31.0413C92.8137 30.3528 91.4336 29.0198 91.4336 26.8567C91.4336 24.1785 93.8678 22.3389 97.3242 22.3389C100.745 22.3389 103.09 24.1785 103.169 26.8567H100.723C100.577 25.3076 99.2415 24.3726 97.2898 24.3726C95.3382 24.3726 94.0027 25.3186 94.0027 26.6956C94.0027 27.793 94.8557 28.4387 96.9423 28.9331L98.7259 29.353C102.047 30.1062 103.427 31.3855 103.427 33.656C103.427 36.56 101.015 38.3789 97.1778 38.3789C93.5876 38.3789 91.1637 36.6027 91.0071 33.7951L93.4871 33.7952Z" fill="white"/>
<path d="M108.655 24.125V26.8032H110.9V28.6428H108.655V34.8818C108.655 35.8511 109.105 36.3027 110.091 36.3027C110.358 36.2983 110.624 36.2803 110.888 36.249V38.0776C110.445 38.1571 109.994 38.1931 109.543 38.185C107.153 38.185 106.221 37.3244 106.221 35.1296V28.6428H104.505V26.8032H106.221V24.125H108.655Z" fill="white"/>
<path d="M112.199 32.4624C112.199 28.9016 114.386 26.6641 117.797 26.6641C121.219 26.6641 123.396 28.9016 123.396 32.4624C123.396 36.033 121.23 38.2607 117.797 38.2607C114.364 38.2607 112.199 36.0329 112.199 32.4624ZM120.927 32.4624C120.927 30.0198 119.76 28.5781 117.797 28.5781C115.834 28.5781 114.667 30.0308 114.667 32.4624C114.667 34.9148 115.834 36.3455 117.797 36.3455C119.76 36.3455 120.927 34.9148 120.927 32.4624H120.927Z" fill="white"/>
<path d="M125.394 26.803H127.704V28.7293H127.76C127.917 28.1277 128.284 27.596 128.801 27.2236C129.318 26.8513 129.953 26.6609 130.599 26.6846C130.878 26.6836 131.157 26.7127 131.429 26.7713V28.9441C131.077 28.8408 130.709 28.7934 130.341 28.8037C129.989 28.79 129.638 28.8495 129.312 28.9782C128.987 29.1068 128.694 29.3014 128.454 29.5488C128.214 29.7962 128.033 30.0904 127.923 30.4112C127.813 30.732 127.776 31.0719 127.816 31.4075V38.1201H125.394L125.394 26.803Z" fill="white"/>
<path d="M142.6 34.7964C142.274 36.8508 140.187 38.2607 137.518 38.2607C134.084 38.2607 131.953 36.0549 131.953 32.5161C131.953 28.9663 134.095 26.6641 137.416 26.6641C140.681 26.6641 142.735 28.8149 142.735 32.2463V33.0422H134.399V33.1826C134.36 33.5991 134.414 34.0187 134.558 34.4135C134.702 34.8083 134.931 35.1693 135.232 35.4725C135.532 35.7756 135.896 36.0141 136.3 36.172C136.704 36.3299 137.138 36.4036 137.574 36.3882C138.146 36.4396 138.721 36.3125 139.212 36.0257C139.703 35.7389 140.084 35.3077 140.299 34.7964L142.6 34.7964ZM134.41 31.4187H140.311C140.332 31.0442 140.273 30.6694 140.137 30.3179C140 29.9664 139.79 29.6457 139.518 29.376C139.246 29.1063 138.919 28.8934 138.557 28.7506C138.195 28.6079 137.807 28.5383 137.416 28.5464C137.021 28.5441 136.63 28.6168 136.265 28.7602C135.9 28.9037 135.568 29.115 135.289 29.382C135.009 29.6491 134.788 29.9665 134.637 30.3161C134.486 30.6657 134.409 31.0404 134.41 31.4187V31.4187Z" fill="white"/>
<path d="M49.3122 10.9137C49.8201 10.8788 50.3298 10.9524 50.8044 11.1292C51.2791 11.3059 51.707 11.5815 52.0571 11.9361C52.4072 12.2906 52.6709 12.7152 52.8292 13.1793C52.9875 13.6434 53.0364 14.1354 52.9723 14.6198C52.9723 17.0026 51.6292 18.3723 49.3122 18.3723H46.5024V10.9137H49.3122ZM47.7106 17.3175H49.1772C49.5402 17.3383 49.9034 17.2812 50.2404 17.1505C50.5775 17.0197 50.8798 16.8185 51.1256 16.5616C51.3713 16.3046 51.5542 15.9983 51.6609 15.6651C51.7676 15.3318 51.7955 14.9799 51.7425 14.635C51.7917 14.2914 51.761 13.9417 51.6526 13.6109C51.5442 13.2801 51.3609 12.9763 51.1157 12.7214C50.8706 12.4665 50.5696 12.2667 50.2345 12.1364C49.8993 12.0061 49.5383 11.9485 49.1772 11.9677H47.7106V17.3175Z" fill="white"/>
<path d="M54.338 15.5557C54.3011 15.1858 54.3453 14.8126 54.4676 14.46C54.5899 14.1074 54.7878 13.7833 55.0484 13.5083C55.3091 13.2333 55.6268 13.0136 55.9812 12.8633C56.3356 12.7129 56.7189 12.6353 57.1064 12.6353C57.4939 12.6353 57.8772 12.7129 58.2316 12.8633C58.586 13.0136 58.9037 13.2333 59.1644 13.5083C59.425 13.7833 59.6229 14.1074 59.7452 14.46C59.8675 14.8126 59.9116 15.1858 59.8747 15.5557C59.9123 15.926 59.8687 16.2997 59.7467 16.6529C59.6247 17.006 59.427 17.3308 59.1663 17.6063C58.9056 17.8819 58.5876 18.102 58.2329 18.2527C57.8781 18.4034 57.4944 18.4812 57.1064 18.4812C56.7184 18.4812 56.3347 18.4034 55.9799 18.2527C55.6252 18.102 55.3072 17.8819 55.0465 17.6063C54.7858 17.3308 54.5881 17.006 54.4661 16.6529C54.344 16.2997 54.3004 15.926 54.338 15.5557ZM58.6831 15.5557C58.6831 14.3356 58.1115 13.6221 57.1083 13.6221C56.1013 13.6221 55.5348 14.3356 55.5348 15.5557C55.5348 16.7856 56.1013 17.4936 57.1083 17.4936C58.1115 17.4936 58.6831 16.7807 58.6831 15.5557H58.6831Z" fill="white"/>
<path d="M67.2326 18.3723H66.0308L64.8175 14.2268H64.7259L63.5177 18.3723H62.3273L60.7092 12.7437H61.8843L62.9359 17.0387H63.0225L64.2293 12.7437H65.3408L66.5476 17.0387H66.6393L67.6858 12.7437H68.8443L67.2326 18.3723Z" fill="white"/>
<path d="M70.2068 12.7436H71.322V13.6377H71.4086C71.5555 13.3166 71.8032 13.0474 72.1172 12.8676C72.4312 12.6879 72.7959 12.6065 73.1604 12.6349C73.446 12.6143 73.7328 12.6556 73.9995 12.7558C74.2662 12.8559 74.5061 13.0123 74.7012 13.2133C74.8963 13.4144 75.0418 13.6549 75.1268 13.9172C75.2118 14.1795 75.2341 14.4567 75.1922 14.7284V18.3722H74.0337V15.0074C74.0337 14.1028 73.6238 13.653 72.767 13.653C72.5731 13.6444 72.3795 13.676 72.1995 13.7458C72.0195 13.8156 71.8574 13.9219 71.7243 14.0573C71.5911 14.1928 71.4901 14.3543 71.4282 14.5307C71.3662 14.7071 71.3448 14.8943 71.3653 15.0794V18.3722H70.2068L70.2068 12.7436Z" fill="white"/>
<path d="M77.0369 10.5464H78.1954V18.3723H77.0369V10.5464Z" fill="white"/>
<path d="M79.8075 15.5553C79.7706 15.1854 79.8148 14.8122 79.9371 14.4596C80.0595 14.107 80.2574 13.7828 80.5181 13.5078C80.7787 13.2328 81.0965 13.0131 81.4509 12.8628C81.8053 12.7124 82.1886 12.6348 82.5762 12.6348C82.9637 12.6348 83.347 12.7124 83.7014 12.8628C84.0558 13.0131 84.3736 13.2328 84.6343 13.5078C84.8949 13.7828 85.0928 14.107 85.2152 14.4596C85.3375 14.8122 85.3817 15.1854 85.3448 15.5553C85.3824 15.9256 85.3387 16.2994 85.2167 16.6525C85.0946 17.0057 84.8969 17.3304 84.6361 17.606C84.3754 17.8815 84.0574 18.1016 83.7026 18.2523C83.3479 18.4029 82.9642 18.4808 82.5762 18.4808C82.1882 18.4808 81.8044 18.4029 81.4497 18.2523C81.0949 18.1016 80.7769 17.8815 80.5162 17.606C80.2554 17.3304 80.0577 17.0057 79.9356 16.6525C79.8136 16.2994 79.7699 15.9256 79.8075 15.5553ZM84.1526 15.5553C84.1526 14.3353 83.5809 13.6218 82.5777 13.6218C81.5707 13.6218 81.0042 14.3353 81.0042 15.5554C81.0042 16.7852 81.5708 17.4932 82.5777 17.4932C83.5809 17.4932 84.1526 16.7803 84.1526 15.5553H84.1526Z" fill="white"/>
<path d="M86.5645 16.7808C86.5645 15.7676 87.3512 15.1835 88.7478 15.1005L90.3379 15.0126V14.5267C90.3379 13.9322 89.928 13.5966 89.1361 13.5966C88.4894 13.5966 88.0413 13.8242 87.9127 14.2222H86.7911C86.9095 13.2554 87.8579 12.6353 89.1896 12.6353C90.6613 12.6353 91.4913 13.3378 91.4913 14.5267V18.3726H90.3761V17.5815H90.2844C90.0984 17.8653 89.8371 18.0966 89.5274 18.2519C89.2176 18.4071 88.8704 18.4808 88.5212 18.4653C88.2748 18.4899 88.0257 18.4647 87.79 18.3913C87.5544 18.3179 87.3374 18.198 87.153 18.0393C86.9687 17.8806 86.8211 17.6866 86.7197 17.4698C86.6183 17.2531 86.5654 17.0183 86.5645 16.7808ZM90.3379 16.2998V15.8292L88.9044 15.9171C88.096 15.969 87.7293 16.2327 87.7293 16.7289C87.7293 17.2355 88.1876 17.5303 88.8179 17.5303C89.0025 17.5482 89.1891 17.5303 89.3664 17.4777C89.5437 17.4251 89.7081 17.3388 89.8499 17.224C89.9918 17.1092 90.108 16.9682 90.1919 16.8094C90.2757 16.6507 90.3254 16.4773 90.3379 16.2998Z" fill="white"/>
<path d="M93.0132 15.5556C93.0132 13.777 93.9667 12.6503 95.4499 12.6503C95.8168 12.6341 96.1809 12.7183 96.4996 12.8932C96.8184 13.0681 97.0787 13.3263 97.25 13.6378H97.3366V10.5464H98.4951V18.3723H97.385V17.483H97.2933C97.1087 17.7924 96.8394 18.0474 96.5144 18.2205C96.1895 18.3936 95.8214 18.4782 95.4499 18.4651C93.9566 18.4651 93.0132 17.3384 93.0132 15.5556ZM94.2099 15.5556C94.2099 16.7494 94.7968 17.4678 95.7784 17.4678C96.7548 17.4678 97.3583 16.739 97.3583 15.5604C97.3583 14.3873 96.7485 13.6482 95.7784 13.6482C94.8032 13.6482 94.2099 14.3715 94.2099 15.5556H94.2099Z" fill="white"/>
<path d="M103.289 15.5557C103.252 15.1858 103.296 14.8126 103.418 14.46C103.541 14.1074 103.738 13.7833 103.999 13.5083C104.26 13.2333 104.577 13.0136 104.932 12.8633C105.286 12.7129 105.67 12.6353 106.057 12.6353C106.445 12.6353 106.828 12.7129 107.182 12.8633C107.537 13.0136 107.854 13.2333 108.115 13.5083C108.376 13.7833 108.574 14.1074 108.696 14.46C108.818 14.8126 108.862 15.1858 108.825 15.5557C108.863 15.926 108.819 16.2997 108.697 16.6529C108.575 17.006 108.378 17.3308 108.117 17.6063C107.856 17.8819 107.538 18.102 107.184 18.2527C106.829 18.4034 106.445 18.4812 106.057 18.4812C105.669 18.4812 105.285 18.4034 104.931 18.2527C104.576 18.102 104.258 17.8819 103.997 17.6063C103.736 17.3308 103.539 17.006 103.417 16.6529C103.295 16.2997 103.251 15.926 103.289 15.5557ZM107.634 15.5557C107.634 14.3356 107.062 13.6221 106.059 13.6221C105.052 13.6221 104.485 14.3356 104.485 15.5557C104.485 16.7856 105.052 17.4936 106.059 17.4936C107.062 17.4936 107.634 16.7807 107.634 15.5557Z" fill="white"/>
<path d="M110.379 12.7436H111.494V13.6377H111.581C111.728 13.3166 111.976 13.0474 112.29 12.8676C112.604 12.6879 112.968 12.6065 113.333 12.6349C113.618 12.6143 113.905 12.6556 114.172 12.7558C114.439 12.8559 114.678 13.0123 114.874 13.2133C115.069 13.4144 115.214 13.6549 115.299 13.9172C115.384 14.1795 115.407 14.4567 115.365 14.7284V18.3722H114.206V15.0074C114.206 14.1028 113.796 13.653 112.939 13.653C112.745 13.6444 112.552 13.676 112.372 13.7458C112.192 13.8156 112.03 13.9219 111.897 14.0573C111.763 14.1928 111.662 14.3543 111.601 14.5307C111.539 14.7071 111.517 14.8943 111.538 15.0794V18.3722H110.379V12.7436Z" fill="white"/>
<path d="M121.912 11.3423V12.7693H123.184V13.705H121.912V16.5992C121.912 17.1888 122.165 17.447 122.742 17.447C122.89 17.4466 123.037 17.438 123.184 17.4214V18.3467C122.976 18.3824 122.765 18.4013 122.554 18.4034C121.265 18.4034 120.752 17.9689 120.752 16.8837V13.7049H119.82V12.7692H120.752V11.3423H121.912Z" fill="white"/>
<path d="M124.765 10.5464H125.913V13.6482H126.005C126.159 13.324 126.413 13.0533 126.733 12.8729C127.054 12.6924 127.424 12.6111 127.795 12.6399C128.079 12.6251 128.363 12.6706 128.626 12.7731C128.89 12.8757 129.127 13.0328 129.32 13.2332C129.513 13.4336 129.658 13.6724 129.744 13.9326C129.829 14.1928 129.854 14.4679 129.816 14.7383V18.3723H128.657V15.0123C128.657 14.1133 128.22 13.6579 127.401 13.6579C127.202 13.6423 127.002 13.6685 126.814 13.7349C126.627 13.8012 126.457 13.906 126.316 14.0419C126.175 14.1778 126.067 14.3416 125.999 14.5217C125.932 14.7019 125.906 14.8941 125.923 15.0849V18.3723H124.765L124.765 10.5464Z" fill="white"/>
<path d="M136.572 16.8524C136.415 17.3668 136.074 17.8118 135.609 18.1095C135.144 18.4072 134.584 18.5386 134.028 18.4808C133.642 18.4906 133.257 18.4196 132.902 18.2726C132.547 18.1257 132.229 17.9065 131.971 17.63C131.713 17.3536 131.521 17.0267 131.408 16.6719C131.295 16.3171 131.264 15.943 131.317 15.5755C131.265 15.2069 131.297 14.832 131.41 14.4762C131.522 14.1203 131.714 13.7919 131.97 13.513C132.227 13.2342 132.543 13.0115 132.897 12.86C133.252 12.7085 133.636 12.6317 134.023 12.6349C135.657 12.6349 136.642 13.7049 136.642 15.4724V15.86H132.497V15.9222C132.479 16.1288 132.506 16.3367 132.576 16.5326C132.647 16.7286 132.759 16.9082 132.907 17.06C133.054 17.2118 133.233 17.3325 133.431 17.4142C133.63 17.496 133.844 17.537 134.06 17.5347C134.337 17.5666 134.618 17.5188 134.867 17.3973C135.116 17.2758 135.321 17.0861 135.457 16.8523L136.572 16.8524ZM132.497 15.0384H135.462C135.477 14.8495 135.45 14.6598 135.383 14.4814C135.317 14.303 135.212 14.1399 135.076 14.0025C134.94 13.8652 134.776 13.7567 134.593 13.684C134.411 13.6113 134.214 13.576 134.017 13.5803C133.817 13.5779 133.618 13.614 133.432 13.6864C133.247 13.7588 133.078 13.8661 132.936 14.002C132.795 14.1379 132.683 14.2996 132.607 14.4776C132.532 14.6556 132.494 14.8463 132.497 15.0384H132.497Z" fill="white"/>
</g>
<defs>
<clipPath id="clip0_200_1169">
<rect width="156" height="50" fill="white"/>
</clipPath>
</defs>
</svg>
