<svg width="25" height="25" viewBox="0 0 25 25" fill="none" xmlns="http://www.w3.org/2000/svg">
<path d="M16.7 2H8.3C4.82555 2 2 4.82555 2 8.3V21.95C2 22.2285 2.11062 22.4955 2.30754 22.6925C2.50445 22.8894 2.77152 23 3.05 23H16.7C20.1744 23 23 20.1744 23 16.7V8.3C23 4.82555 20.1744 2 16.7 2ZM20.9 16.7C20.9 19.0163 19.0163 20.9 16.7 20.9H4.1V8.3C4.1 5.9837 5.9837 4.1 8.3 4.1H16.7C19.0163 4.1 20.9 5.9837 20.9 8.3V16.7Z" fill="white"/>
<path d="M11.7392 14.0314L9.42627 11.6243L8 13.1086L11.7392 17L18 10.4843L16.5737 9L11.7392 14.0314Z" fill="white"/>
</svg>
