<svg width="16" height="16" viewBox="0 0 16 16" fill="none" xmlns="http://www.w3.org/2000/svg">
<path fill-rule="evenodd" clip-rule="evenodd" d="M7.98154 13.5788C5.82221 13.5788 3.97754 13.2521 3.97754 11.9441C3.97754 10.6361 5.81021 9.49744 7.98154 9.49744C10.1409 9.49744 11.9855 10.6254 11.9855 11.9328C11.9855 13.2401 10.1529 13.5788 7.98154 13.5788Z" stroke="#9E9E9E" stroke-width="1.5" stroke-linecap="round" stroke-linejoin="round"/>
<path fill-rule="evenodd" clip-rule="evenodd" d="M7.98172 7.63242C9.39905 7.63242 10.5484 6.48376 10.5484 5.06642C10.5484 3.64909 9.39905 2.49976 7.98172 2.49976C6.56438 2.49976 5.41505 3.64909 5.41505 5.06642C5.41105 6.47842 6.55105 7.62776 7.96372 7.63242H7.98172Z" stroke="#9E9E9E" stroke-width="1.5" stroke-linecap="round" stroke-linejoin="round"/>
<path d="M12.2415 6.92765C13.0662 6.70698 13.6742 5.95498 13.6742 5.05965C13.6742 4.12565 13.0122 3.34565 12.1309 3.16565" stroke="#9E9E9E" stroke-width="1.5" stroke-linecap="round" stroke-linejoin="round"/>
<path d="M12.6289 9.02954C13.7982 9.02954 14.7969 9.82221 14.7969 10.5302C14.7969 10.9469 14.4522 11.4009 13.9296 11.5235" stroke="#9E9E9E" stroke-width="1.5" stroke-linecap="round" stroke-linejoin="round"/>
<path d="M3.7224 6.92765C2.89706 6.70698 2.28906 5.95498 2.28906 5.05965C2.28906 4.12565 2.95173 3.34565 3.8324 3.16565" stroke="#9E9E9E" stroke-width="1.5" stroke-linecap="round" stroke-linejoin="round"/>
<path d="M3.3345 9.02954C2.16517 9.02954 1.1665 9.82221 1.1665 10.5302C1.1665 10.9469 1.51117 11.4009 2.0345 11.5235" stroke="#9E9E9E" stroke-width="1.5" stroke-linecap="round" stroke-linejoin="round"/>
</svg>
