<svg width="74" height="74" viewBox="0 0 74 74" fill="none" xmlns="http://www.w3.org/2000/svg">
<g clip-path="url(#clip0_936_2779)">
<path d="M2.31279 13.875L2.49779 17.8987C1.27756 19.6726 0.717852 21.8182 0.916044 23.9621L3.86217 56.3371C4.07102 58.6354 5.13138 60.7725 6.8351 62.3291C8.53883 63.8856 10.7628 64.7491 13.0705 64.75H41.6253V60.125H13.0705C11.9167 60.1239 10.805 59.6916 9.95356 58.9129C9.10213 58.1342 8.57251 57.0654 8.46867 55.9163L5.52254 23.5413C5.46472 22.9014 5.54085 22.2565 5.74607 21.6477C5.95129 21.0388 6.28111 20.4795 6.7145 20.0052C7.14789 19.5309 7.67534 19.1521 8.26323 18.8929C8.85113 18.6338 9.48657 18.5 10.129 18.5H63.8715C64.514 18.5 65.1495 18.6338 65.7374 18.8929C66.3252 19.1521 66.8527 19.5309 67.2861 20.0052C67.7195 20.4795 68.0493 21.0388 68.2545 21.6477C68.4597 22.2565 68.5359 22.9014 68.478 23.5413L67.2478 37H71.8959L73.0799 23.9621C73.1962 22.6824 73.0446 21.3925 72.6347 20.1746C72.2249 18.9567 71.5658 17.8376 70.6994 16.8886C69.8331 15.9396 68.7785 15.1815 67.6029 14.6626C66.4273 14.1437 65.1565 13.8755 63.8715 13.875H45.4548C43.0017 13.8745 40.6493 12.8996 38.915 11.1648L35.0855 7.33525C33.3512 5.60042 30.9988 4.62552 28.5458 4.625H11.5628C9.10954 4.625 6.75677 5.59955 5.02206 7.33426C3.28735 9.06897 2.31279 11.4217 2.31279 13.875ZM28.5458 9.25C29.7723 9.25026 30.9485 9.73771 31.8157 10.6051L35.0855 13.875H10.129C9.01904 13.875 7.95529 14.0692 6.97017 14.43L6.93779 13.7825C6.96201 12.572 7.45995 11.4192 8.3247 10.5718C9.18944 9.72432 10.352 9.24976 11.5628 9.25H28.5458Z" fill="#1E5DFE"/>
<path d="M62.4375 46.25C63.0508 46.25 63.639 46.4936 64.0727 46.9273C64.5064 47.361 64.75 47.9492 64.75 48.5625V55.5H71.6875C72.3008 55.5 72.889 55.7436 73.3227 56.1773C73.7564 56.611 74 57.1992 74 57.8125C74 58.4258 73.7564 59.014 73.3227 59.4477C72.889 59.8814 72.3008 60.125 71.6875 60.125H64.75V67.0625C64.75 67.6758 64.5064 68.264 64.0727 68.6977C63.639 69.1314 63.0508 69.375 62.4375 69.375C61.8242 69.375 61.236 69.1314 60.8023 68.6977C60.3686 68.264 60.125 67.6758 60.125 67.0625V60.125H53.1875C52.5742 60.125 51.986 59.8814 51.5523 59.4477C51.1186 59.014 50.875 58.4258 50.875 57.8125C50.875 57.1992 51.1186 56.611 51.5523 56.1773C51.986 55.7436 52.5742 55.5 53.1875 55.5H60.125V48.5625C60.125 47.9492 60.3686 47.361 60.8023 46.9273C61.236 46.4936 61.8242 46.25 62.4375 46.25Z" fill="#1E5DFE"/>
</g>
<defs>
<clipPath id="clip0_936_2779">
<rect width="74" height="74" fill="white"/>
</clipPath>
</defs>
</svg>
