<svg width="25" height="25" viewBox="0 0 25 25" fill="none" xmlns="http://www.w3.org/2000/svg">
<path d="M16.6666 2.08325H8.33325C4.88638 2.08325 2.08325 4.88638 2.08325 8.33325V21.8749C2.08325 22.1512 2.193 22.4161 2.38835 22.6115C2.5837 22.8068 2.84865 22.9166 3.12492 22.9166H16.6666C20.1135 22.9166 22.9166 20.1135 22.9166 16.6666V8.33325C22.9166 4.88638 20.1135 2.08325 16.6666 2.08325ZM20.8333 16.6666C20.8333 18.9645 18.9645 20.8333 16.6666 20.8333H4.16659V8.33325C4.16659 6.03534 6.03534 4.16659 8.33325 4.16659H16.6666C18.9645 4.16659 20.8333 6.03534 20.8333 8.33325V16.6666Z" fill="white"/>
<path d="M11.4583 6.25H13.5416V14.5833H11.4583V6.25ZM11.4583 16.6667H13.5416V18.75H11.4583V16.6667Z" fill="white"/>
</svg>
