<svg width="50" height="50" viewBox="0 0 50 50" fill="none" xmlns="http://www.w3.org/2000/svg">
<rect width="50" height="50" rx="12" fill="white"/>
<path fill-rule="evenodd" clip-rule="evenodd" d="M10 25.0838C10 32.5413 15.4163 38.7425 22.5 40V29.1663H18.75V25H22.5V21.6663C22.5 17.9163 24.9163 15.8337 28.3337 15.8337C29.4163 15.8337 30.5837 16 31.6663 16.1663V20H29.75C27.9163 20 27.5 20.9163 27.5 22.0837V25H31.5L30.8337 29.1663H27.5V40C34.5837 38.7425 40 32.5425 40 25.0838C40 16.7875 33.25 10 25 10C16.75 10 10 16.7875 10 25.0838Z" fill="black"/>
</svg>
