<svg width="18" height="14" viewBox="0 0 18 14" fill="none" xmlns="http://www.w3.org/2000/svg">
<path d="M15.8906 0.446777H2.10938C0.946266 0.446777 0 1.37291 0 2.51127V11.3198C0 12.4581 0.946266 13.3843 2.10938 13.3843H15.8906C17.0537 13.3843 18 12.4581 18 11.3198V2.51127C18 1.37291 17.0537 0.446777 15.8906 0.446777ZM16.5938 11.3198C16.5938 11.6992 16.2783 12.0079 15.8906 12.0079H2.10938C1.72167 12.0079 1.40625 11.6992 1.40625 11.3198V2.51127C1.40625 2.13182 1.72167 1.82311 2.10938 1.82311H15.8906C16.2783 1.82311 16.5938 2.13182 16.5938 2.51127V11.3198Z" fill="white"/>
</svg>
