<svg width="155" height="49" viewBox="0 0 155 49" fill="none" xmlns="http://www.w3.org/2000/svg">
<path d="M149.259 0H5.74074C2.57022 0 0 2.74226 0 6.125V42.875C0 46.2577 2.57022 49 5.74074 49H149.259C152.43 49 155 46.2577 155 42.875V6.125C155 2.74226 152.43 0 149.259 0Z" fill="black"/>
<path d="M149.259 0.98C150.538 0.98 151.765 1.52206 152.669 2.48694C153.573 3.45181 154.081 4.76046 154.081 6.125V42.875C154.081 44.2395 153.573 45.5482 152.669 46.5131C151.765 47.4779 150.538 48.02 149.259 48.02H5.74074C4.46181 48.02 3.23526 47.4779 2.33091 46.5131C1.42657 45.5482 0.918519 44.2395 0.918519 42.875V6.125C0.918519 4.76046 1.42657 3.45181 2.33091 2.48694C3.23526 1.52206 4.46181 0.98 5.74074 0.98H149.259ZM149.259 0H5.74074C4.2182 0 2.75802 0.645311 1.68142 1.79397C0.604826 2.94263 0 4.50055 0 6.125V42.875C0 44.4995 0.604826 46.0574 1.68142 47.206C2.75802 48.3547 4.2182 49 5.74074 49H149.259C150.782 49 152.242 48.3547 153.319 47.206C154.395 46.0574 155 44.4995 155 42.875V6.125C155 4.50055 154.395 2.94263 153.319 1.79397C152.242 0.645311 150.782 0 149.259 0Z" fill="#A6A6A6"/>
<path d="M54.4449 12.5441C54.4637 12.9934 54.3971 13.442 54.2491 13.8631C54.1012 14.2842 53.8748 14.6689 53.5837 14.9941C53.2576 15.3534 52.864 15.6352 52.4287 15.8209C51.9934 16.0067 51.5263 16.0923 51.0578 16.0721C50.5867 16.0833 50.1184 15.9913 49.682 15.8016C49.2455 15.612 48.8502 15.3288 48.5204 14.9696C47.8514 14.2395 47.4768 13.259 47.4768 12.2379C47.4768 11.2168 47.8514 10.2363 48.5204 9.50613C49.0319 8.97287 49.6797 8.61279 50.3824 8.47112C51.0852 8.32945 51.8114 8.41252 52.47 8.70988C52.8841 8.89147 53.2534 9.1723 53.5493 9.53063L52.9408 10.1799C52.7128 9.88683 52.4239 9.65453 52.097 9.50142C51.7702 9.34832 51.4143 9.27863 51.0578 9.29788C50.6078 9.3012 50.1653 9.42209 49.7692 9.64997C49.373 9.87785 49.0352 10.2058 48.7853 10.6051C48.5354 11.0044 48.3809 11.463 48.3354 11.9407C48.29 12.4185 48.3548 12.9008 48.5244 13.3456C48.694 13.7904 48.9631 14.1841 49.3082 14.4923C49.6534 14.8005 50.064 15.0138 50.5042 15.1136C50.9444 15.2134 51.4009 15.1966 51.8336 15.0648C52.2664 14.9329 52.6623 14.6899 52.9867 14.3571C53.3374 13.9469 53.5408 13.4175 53.5608 12.8626H51.0578V11.9806H54.3989C54.4251 12.1673 54.4404 12.3555 54.4449 12.5441Z" fill="white" stroke="white" stroke-width="0.411304" stroke-miterlimit="10"/>
<path d="M59.7043 9.48169H56.6043V11.8092H59.4287V12.6912H56.6043V15.0187H59.7043V15.9252H55.7087V8.5752H59.7043V9.48169Z" fill="white" stroke="white" stroke-width="0.411304" stroke-miterlimit="10"/>
<path d="M63.4702 15.9252H62.5861V9.48169H60.6572V8.5752H65.445V9.48169H63.4702V15.9252Z" fill="white" stroke="white" stroke-width="0.411304" stroke-miterlimit="10"/>
<path d="M68.8191 15.9252V8.5752H69.7032V15.9252H68.8191Z" fill="white" stroke="white" stroke-width="0.411304" stroke-miterlimit="10"/>
<path d="M73.6303 15.9252H72.7463V9.48169H70.8174V8.5752H75.5478V9.48169H73.6303V15.9252Z" fill="white" stroke="white" stroke-width="0.411304" stroke-miterlimit="10"/>
<path d="M84.5154 14.9695C84.1838 15.3236 83.7901 15.6045 83.3566 15.7962C82.9232 15.9878 82.4587 16.0865 81.9895 16.0865C81.5204 16.0865 81.0558 15.9878 80.6224 15.7962C80.189 15.6045 79.7952 15.3236 79.4636 14.9695C78.8145 14.2334 78.4531 13.2607 78.4531 12.25C78.4531 11.2393 78.8145 10.2667 79.4636 9.53053C79.7881 9.16646 80.1805 8.87911 80.6157 8.68709C81.0508 8.49506 81.5188 8.40263 81.9895 8.41578C82.4596 8.40785 82.9261 8.50266 83.3606 8.69437C83.795 8.88608 84.188 9.17064 84.5154 9.53053C84.8456 9.88883 85.1051 10.3141 85.2786 10.7812C85.4522 11.2483 85.5362 11.7477 85.5258 12.25C85.5409 12.753 85.459 13.2539 85.2852 13.7217C85.1114 14.1895 84.8494 14.6142 84.5154 14.9695ZM80.118 14.357C80.3626 14.6215 80.654 14.8315 80.9753 14.9748C81.2965 15.1181 81.6413 15.1919 81.9895 15.1919C82.3377 15.1919 82.6825 15.1181 83.0038 14.9748C83.325 14.8315 83.6164 14.6215 83.861 14.357C84.3564 13.7827 84.6314 13.0306 84.6314 12.25C84.6314 11.4695 84.3564 10.7174 83.861 10.143C83.6164 9.87858 83.325 9.6686 83.0038 9.52528C82.6825 9.38196 82.3377 9.30816 81.9895 9.30816C81.6413 9.30816 81.2965 9.38196 80.9753 9.52528C80.654 9.6686 80.3626 9.87858 80.118 10.143C79.6226 10.7174 79.3476 11.4695 79.3476 12.25C79.3476 13.0306 79.6226 13.7827 80.118 14.357Z" fill="white" stroke="white" stroke-width="0.411304" stroke-miterlimit="10"/>
<path d="M86.7776 15.9252V8.5752H87.8454L91.198 14.2959V12.8749V8.5752H92.082V15.9252H91.1635L87.6617 9.93495V11.3437V15.9252H86.7776Z" fill="white" stroke="white" stroke-width="0.411304" stroke-miterlimit="10"/>
<path d="M78.2351 26.644C77.2677 26.6464 76.3227 26.9549 75.5197 27.5303C74.7166 28.1057 74.0915 28.9223 73.7234 29.8768C73.3553 30.8313 73.2607 31.8808 73.4517 32.8926C73.6427 33.9044 74.1105 34.8331 74.7962 35.5612C75.4818 36.2893 76.3544 36.7841 77.3036 36.9831C78.2528 37.1821 79.2361 37.0763 80.1289 36.679C81.0218 36.2818 81.7842 35.6111 82.3198 34.7515C82.8553 33.892 83.1399 32.8824 83.1377 31.8502C83.147 31.1617 83.0264 30.4782 82.7831 29.8404C82.5397 29.2027 82.1786 28.6237 81.7211 28.1379C81.2637 27.6521 80.7193 27.2695 80.1204 27.0129C79.5215 26.7562 78.8804 26.6308 78.2351 26.644ZM78.2351 35.0107C77.6422 35.055 77.0505 34.9079 76.5369 34.5886C76.0234 34.2693 75.6118 33.7925 75.3555 33.2203C75.0993 32.6481 75.0104 32.0069 75.1003 31.38C75.1901 30.7532 75.4547 30.1696 75.8595 29.7053C76.2644 29.241 76.7907 28.9173 77.3703 28.7764C77.9498 28.6355 78.5556 28.6839 79.109 28.9152C79.6624 29.1466 80.1378 29.5502 80.4734 30.0736C80.809 30.5971 80.9892 31.2161 80.9906 31.8502C81.0091 32.2521 80.952 32.6538 80.8227 33.0317C80.6934 33.4096 80.4944 33.756 80.2376 34.0506C79.9808 34.3451 79.6713 34.5818 79.3274 34.7467C78.9834 34.9117 78.612 35.0014 78.2351 35.0107ZM67.5343 26.644C66.567 26.6464 65.622 26.9549 64.8189 27.5303C64.0159 28.1057 63.3907 28.9223 63.0227 29.8768C62.6546 30.8313 62.56 31.8808 62.751 32.8926C62.9419 33.9044 63.4098 34.8331 64.0954 35.5612C64.7811 36.2893 65.6537 36.7841 66.6029 36.9831C67.5521 37.1821 68.5353 37.0763 69.4282 36.679C70.321 36.2818 71.0835 35.6111 71.619 34.7515C72.1546 33.892 72.4392 32.8824 72.4369 31.8502C72.4463 31.1617 72.3257 30.4782 72.0824 29.8404C71.839 29.2027 71.4778 28.6237 71.0204 28.1379C70.563 27.6521 70.0186 27.2695 69.4197 27.0129C68.8208 26.7562 68.1796 26.6308 67.5343 26.644ZM67.5343 35.0107C66.9414 35.055 66.3497 34.9079 65.8362 34.5886C65.3227 34.2693 64.911 33.7925 64.6548 33.2203C64.3986 32.6481 64.3096 32.0069 64.3995 31.38C64.4894 30.7532 64.754 30.1696 65.1588 29.7053C65.5636 29.241 66.09 28.9173 66.6695 28.7764C67.249 28.6355 67.8549 28.6839 68.4083 28.9152C68.9617 29.1466 69.4371 29.5502 69.7727 30.0736C70.1082 30.5971 70.2884 31.2161 70.2899 31.8502C70.3084 32.2521 70.2513 32.6538 70.122 33.0317C69.9926 33.4096 69.7937 33.756 69.5369 34.0506C69.2801 34.3451 68.9706 34.5818 68.6266 34.7467C68.2827 34.9117 67.9113 35.0014 67.5343 35.0107ZM54.8129 28.2487V30.4537H59.7729C59.6951 31.4923 59.2905 32.4723 58.6247 33.2345C58.1272 33.7753 57.5287 34.1987 56.8682 34.4773C56.2076 34.7558 55.4996 34.8833 54.7899 34.8515C53.3283 34.8515 51.9265 34.232 50.893 33.1293C49.8594 32.0266 49.2788 30.531 49.2788 28.9715C49.2788 27.412 49.8594 25.9164 50.893 24.8137C51.9265 23.711 53.3283 23.0915 54.7899 23.0915C56.1912 23.0693 57.5442 23.637 58.5558 24.6717L60.014 23.116C59.3297 22.3939 58.5172 21.8247 57.6241 21.4419C56.731 21.059 55.7752 20.8702 54.8129 20.8865C53.7922 20.8441 52.7739 21.022 51.8192 21.4095C50.8645 21.7971 49.9929 22.3862 49.2567 23.1417C48.5205 23.8972 47.9348 24.8035 47.5347 25.8063C47.1347 26.8091 46.9285 27.8878 46.9285 28.9776C46.9285 30.0675 47.1347 31.1461 47.5347 32.1489C47.9348 33.1517 48.5205 34.058 49.2567 34.8135C49.9929 35.569 50.8645 36.1582 51.8192 36.5457C52.7739 36.9332 53.7922 37.1111 54.8129 37.0687C55.795 37.1106 56.7743 36.9303 57.6866 36.5397C58.5988 36.1492 59.4232 35.5571 60.1058 34.8025C61.3115 33.3893 61.954 31.5307 61.8969 29.6207C61.901 29.161 61.8665 28.7019 61.7936 28.2487H54.8129ZM106.835 29.9637C106.536 29.0238 105.976 28.2032 105.23 27.6103C104.483 27.0175 103.586 26.6805 102.656 26.644C102.028 26.6427 101.407 26.7788 100.83 27.044C100.253 27.3092 99.7333 27.6977 99.3029 28.1857C98.8724 28.6737 98.5404 29.2506 98.3272 29.8809C98.1141 30.5112 98.0243 31.1815 98.0636 31.8502C98.0538 32.9685 98.3833 34.0601 99.0029 34.9621C99.6225 35.864 100.499 36.5279 101.501 36.8545C102.504 37.1812 103.578 37.1531 104.565 36.7744C105.551 36.3957 106.396 35.6868 106.973 34.7535L105.308 33.5285C105.06 33.9698 104.708 34.3343 104.287 34.5857C103.866 34.8371 103.391 34.9667 102.909 34.9617C102.411 34.9837 101.919 34.8445 101.497 34.5624C101.075 34.2804 100.742 33.8687 100.544 33.3815L107.077 30.5027L106.835 29.9637ZM100.176 31.7032C100.153 31.3227 100.201 30.9411 100.318 30.5807C100.434 30.2203 100.617 29.8883 100.856 29.6042C101.094 29.3202 101.383 29.0897 101.706 28.9264C102.029 28.7631 102.38 28.6701 102.737 28.653C103.107 28.6289 103.475 28.7218 103.796 28.9201C104.116 29.1184 104.375 29.4133 104.539 29.7677L100.176 31.7032ZM94.8717 36.7502H97.0188V21.4377H94.8717V36.7502ZM91.3584 27.8077H91.278C90.9573 27.418 90.5615 27.1068 90.1176 26.8954C89.6737 26.684 89.1923 26.5773 88.7062 26.5827C87.4515 26.6477 86.2683 27.2252 85.4018 28.1956C84.5353 29.166 84.052 30.4549 84.052 31.7951C84.052 33.1354 84.5353 34.4243 85.4018 35.3947C86.2683 36.3651 87.4515 36.9426 88.7062 37.0075C89.193 37.0179 89.6759 36.9135 90.1205 36.7018C90.565 36.49 90.9603 36.1761 91.278 35.7825H91.3584V36.5297C91.3584 38.5265 90.3595 39.5922 88.7521 39.5922C88.2152 39.5797 87.6938 39.3971 87.2543 39.0678C86.8148 38.7384 86.4769 38.2771 86.2836 37.7425L84.4236 38.5632C84.7675 39.4847 85.3654 40.2732 86.1382 40.8244C86.9111 41.3756 87.8226 41.6636 88.7521 41.6502C91.2666 41.6502 93.3447 40.07 93.3447 36.2235V26.9502H91.3584V27.8077ZM88.8899 35.0107C88.1376 34.9607 87.4315 34.6066 86.9154 34.0205C86.3993 33.4345 86.112 32.6605 86.112 31.8564C86.112 31.0522 86.3993 30.2783 86.9154 29.6922C87.4315 29.1062 88.1376 28.752 88.8899 28.702C89.2576 28.7189 89.6183 28.8146 89.9506 28.9833C90.2829 29.152 90.5801 29.3903 90.8243 29.684C91.0685 29.9778 91.2549 30.3209 91.3723 30.6931C91.4897 31.0652 91.5357 31.4587 91.5077 31.8502C91.539 32.2431 91.4953 32.6386 91.3793 33.013C91.2632 33.3873 91.0772 33.7326 90.8325 34.028C90.5878 34.3235 90.2895 34.5629 89.9556 34.7318C89.6217 34.9007 89.2592 34.9956 88.8899 35.0107ZM116.893 21.4377H111.75V36.7502H113.897V30.9437H116.893C117.505 30.9906 118.12 30.9026 118.698 30.6849C119.277 30.4673 119.807 30.1249 120.256 29.6789C120.705 29.233 121.063 28.6931 121.308 28.093C121.553 27.4928 121.68 26.8453 121.68 26.1907C121.68 25.5362 121.553 24.8887 121.308 24.2885C121.063 23.6884 120.705 23.1485 120.256 22.7026C119.807 22.2566 119.277 21.9142 118.698 21.6966C118.12 21.4789 117.505 21.3908 116.893 21.4377ZM116.893 28.7877H113.897V23.5692H116.939C117.262 23.5692 117.581 23.6371 117.879 23.7688C118.178 23.9005 118.448 24.0936 118.677 24.3371C118.905 24.5805 119.086 24.8695 119.209 25.1875C119.333 25.5056 119.396 25.8465 119.396 26.1907C119.396 26.535 119.333 26.8759 119.209 27.194C119.086 27.512 118.905 27.801 118.677 28.0444C118.448 28.2879 118.178 28.481 117.879 28.6127C117.581 28.7444 117.262 28.8122 116.939 28.8122L116.893 28.7877ZM130.143 26.595C129.361 26.5436 128.582 26.7378 127.903 27.1536C127.223 27.5695 126.673 28.1887 126.32 28.9347L128.214 29.78C128.405 29.4118 128.693 29.1105 129.041 28.9127C129.389 28.7149 129.784 28.629 130.177 28.6652C130.45 28.6313 130.726 28.6556 130.99 28.7367C131.253 28.8178 131.499 28.9542 131.713 29.1377C131.927 29.3213 132.104 29.5485 132.235 29.806C132.365 30.0635 132.446 30.3462 132.474 30.6375V30.7845C131.783 30.3973 131.015 30.1955 130.235 30.1965C128.191 30.1965 126.101 31.4215 126.101 33.651C126.122 34.1249 126.231 34.5896 126.423 35.0175C126.615 35.4455 126.885 35.8279 127.218 36.1422C127.551 36.4564 127.94 36.696 128.362 36.8468C128.783 36.9975 129.229 37.0563 129.672 37.0197C130.211 37.0515 130.748 36.9299 131.228 36.6673C131.708 36.4047 132.114 36.0105 132.405 35.5252H132.474V36.7502H134.54V30.858C134.54 28.1752 132.634 26.6195 130.189 26.6195L130.143 26.595ZM129.879 34.9862C129.178 34.9862 128.202 34.6065 128.202 33.6877C128.202 32.4627 129.42 32.0462 130.499 32.0462C131.181 32.0283 131.855 32.206 132.451 32.5607C132.379 33.226 132.083 33.8408 131.618 34.2913C131.154 34.7418 130.552 34.9974 129.925 35.0107L129.879 34.9862ZM142.072 26.9502L139.615 33.5897H139.546L136.997 26.9502H134.701L138.524 36.2357L136.343 41.393H138.582L144.46 26.9502H142.072ZM122.783 36.7502H124.919V21.4377H122.783V36.7502Z" fill="white"/>
<path d="M11.986 9.23663C11.6076 9.71391 11.4146 10.3274 11.4463 10.9516V38.0486C11.4073 38.6738 11.6012 39.2902 11.986 39.7636L12.0663 39.8616L26.2919 24.6839V24.3164L12.0663 9.15088L11.986 9.23663Z" fill="url(#paint0_linear_200_1150)"/>
<path d="M31.0004 29.7428L26.293 24.6836V24.3161L31.0004 19.2568L31.1037 19.3303L36.7411 22.7358C38.3485 23.7036 38.3485 25.2961 36.7411 26.2761L31.1267 29.6816L31.0004 29.7428Z" fill="url(#paint1_linear_200_1150)"/>
<path d="M31.1367 29.6695L26.2915 24.5L11.9856 39.7635C12.31 40.0716 12.7253 40.2489 13.1594 40.2645C13.5935 40.2802 14.0191 40.1333 14.3623 39.8492L31.1367 29.6695Z" fill="url(#paint2_linear_200_1150)"/>
<path d="M31.1367 19.3307L14.3623 9.16317C14.0213 8.87519 13.5961 8.72469 13.1614 8.73813C12.7267 8.75158 12.3104 8.9281 11.9856 9.23667L26.2915 24.5002L31.1367 19.3307Z" fill="url(#paint3_linear_200_1150)"/>
<path opacity="0.2" d="M30.9989 29.5591L14.3623 39.6653C14.0315 39.9317 13.6285 40.0757 13.2141 40.0757C12.7998 40.0757 12.3967 39.9317 12.066 39.6653L11.9856 39.7511L12.066 39.8491C12.3967 40.1154 12.7998 40.2595 13.2141 40.2595C13.6285 40.2595 14.0315 40.1154 14.3623 39.8491L31.1367 29.6693L30.9989 29.5591Z" fill="black"/>
<path opacity="0.12" d="M11.9874 39.592C11.6186 39.1061 11.4378 38.4882 11.4822 37.8647V38.0485C11.4431 38.6737 11.637 39.2901 12.0218 39.7635L12.1022 39.6777L11.9874 39.592Z" fill="black"/>
<path opacity="0.12" d="M36.7412 26.0925L31.0005 29.5593L31.1038 29.6695L36.7412 26.264C37.074 26.1139 37.3627 25.8708 37.5768 25.5604C37.791 25.2499 37.9228 24.8836 37.9583 24.5C37.8865 24.8486 37.739 25.1743 37.5276 25.4509C37.3162 25.7275 37.0468 25.9473 36.7412 26.0925Z" fill="black"/>
<path opacity="0.25" d="M14.3638 9.3345L36.7412 22.9075C37.0468 23.0527 37.3161 23.2725 37.5275 23.5491C37.7389 23.8257 37.8865 24.1514 37.9583 24.5C37.9228 24.1164 37.791 23.7501 37.5768 23.4396C37.3626 23.1292 37.074 22.8861 36.7412 22.736L14.3638 9.163C12.7679 8.183 11.4475 8.9915 11.4475 10.9515V11.1352C11.482 9.17525 12.7679 8.36675 14.3638 9.3345Z" fill="white"/>
<defs>
<linearGradient id="paint0_linear_200_1150" x1="25.0289" y1="10.6699" x2="4.5165" y2="29.8954" gradientUnits="userSpaceOnUse">
<stop stop-color="#00A0FF"/>
<stop offset="0.01" stop-color="#00A1FF"/>
<stop offset="0.26" stop-color="#00BEFF"/>
<stop offset="0.51" stop-color="#00D2FF"/>
<stop offset="0.76" stop-color="#00DFFF"/>
<stop offset="1" stop-color="#00E3FF"/>
</linearGradient>
<linearGradient id="paint1_linear_200_1150" x1="38.8422" y1="24.4998" x2="11.0685" y2="24.4998" gradientUnits="userSpaceOnUse">
<stop stop-color="#FFE000"/>
<stop offset="0.41" stop-color="#FFBD00"/>
<stop offset="0.78" stop-color="#FFA500"/>
<stop offset="1" stop-color="#FF9C00"/>
</linearGradient>
<linearGradient id="paint2_linear_200_1150" x1="28.5074" y1="27.3175" x2="0.68565" y2="53.3824" gradientUnits="userSpaceOnUse">
<stop stop-color="#FF3A44"/>
<stop offset="1" stop-color="#C31162"/>
</linearGradient>
<linearGradient id="paint3_linear_200_1150" x1="8.38041" y1="0.220671" x2="20.8003" y2="11.8614" gradientUnits="userSpaceOnUse">
<stop stop-color="#32A071"/>
<stop offset="0.07" stop-color="#2DA771"/>
<stop offset="0.48" stop-color="#15CF74"/>
<stop offset="0.8" stop-color="#06E775"/>
<stop offset="1" stop-color="#00F076"/>
</linearGradient>
</defs>
</svg>
