<svg width="122" height="24" viewBox="0 0 122 24" fill="none" xmlns="http://www.w3.org/2000/svg">
<g clip-path="url(#clip0_1378_2962)">
<path d="M16.5417 15.6679C19.3849 14.1068 21.5403 12.9172 21.7261 12.8247C22.3204 12.5087 22.9341 11.6722 21.7261 11.0224C21.336 10.8181 19.236 9.66553 16.5417 8.1792L12.8066 11.9513L16.5417 15.6678V15.6679Z" fill="#FFD900"/>
<path d="M12.8067 11.9513L0.913818 23.9375C1.19297 23.9745 1.50812 23.9005 1.87969 23.6962C2.65977 23.2692 10.9294 18.7531 16.5418 15.6688L12.8067 11.9513Z" fill="#F43249"/>
<path d="M12.8066 11.9513L16.5417 8.19774C16.5417 8.19774 2.71611 0.652543 1.87961 0.207142C1.56446 0.0204849 1.21129 -0.0349604 0.895264 0.0204849L12.8066 11.9513Z" fill="#00EE76"/>
<path d="M12.8067 11.9513L0.89536 0.0205078C0.411943 0.132274 0.00341797 0.559369 0.00341797 1.43283V22.5252C0.00341797 23.3247 0.319535 23.9005 0.913841 23.956L12.8067 11.9513Z" fill="#00D3FF"/>
</g>
<path d="M41.3636 9C41.2386 8.61742 41.0739 8.27462 40.8693 7.97159C40.6686 7.66477 40.428 7.40341 40.1477 7.1875C39.8712 6.97159 39.5568 6.80682 39.2045 6.69318C38.8523 6.57955 38.4659 6.52273 38.0455 6.52273C37.3561 6.52273 36.7292 6.70076 36.1648 7.05682C35.6004 7.41288 35.1515 7.9375 34.8182 8.63068C34.4848 9.32386 34.3182 10.1742 34.3182 11.1818C34.3182 12.1894 34.4867 13.0398 34.8239 13.733C35.161 14.4261 35.6174 14.9508 36.1932 15.3068C36.7689 15.6629 37.4167 15.8409 38.1364 15.8409C38.803 15.8409 39.3902 15.6989 39.8977 15.4148C40.4091 15.1269 40.8068 14.7216 41.0909 14.1989C41.3788 13.6723 41.5227 13.053 41.5227 12.3409L41.9545 12.4318H38.4545V11.1818H42.8864V12.4318C42.8864 13.3902 42.6818 14.2235 42.2727 14.9318C41.8674 15.6402 41.3068 16.1894 40.5909 16.5795C39.8788 16.9659 39.0606 17.1591 38.1364 17.1591C37.1061 17.1591 36.2008 16.9167 35.4205 16.4318C34.6439 15.947 34.0379 15.2576 33.6023 14.3636C33.1705 13.4697 32.9545 12.4091 32.9545 11.1818C32.9545 10.2614 33.0777 9.43371 33.3239 8.69886C33.5739 7.96023 33.9261 7.33144 34.3807 6.8125C34.8352 6.29356 35.3731 5.89583 35.9943 5.61932C36.6155 5.3428 37.2992 5.20455 38.0455 5.20455C38.6591 5.20455 39.2311 5.29735 39.7614 5.48295C40.2955 5.66477 40.7708 5.92424 41.1875 6.26136C41.608 6.5947 41.9583 6.99432 42.2386 7.46023C42.5189 7.92235 42.7121 8.43561 42.8182 9H41.3636ZM48.6634 17.1818C47.8755 17.1818 47.1842 16.9943 46.5895 16.6193C45.9986 16.2443 45.5365 15.7197 45.2031 15.0455C44.8736 14.3712 44.7088 13.5833 44.7088 12.6818C44.7088 11.7727 44.8736 10.9792 45.2031 10.3011C45.5365 9.62311 45.9986 9.09659 46.5895 8.72159C47.1842 8.34659 47.8755 8.15909 48.6634 8.15909C49.4512 8.15909 50.1406 8.34659 50.7315 8.72159C51.3262 9.09659 51.7884 9.62311 52.1179 10.3011C52.4512 10.9792 52.6179 11.7727 52.6179 12.6818C52.6179 13.5833 52.4512 14.3712 52.1179 15.0455C51.7884 15.7197 51.3262 16.2443 50.7315 16.6193C50.1406 16.9943 49.4512 17.1818 48.6634 17.1818ZM48.6634 15.9773C49.2618 15.9773 49.7543 15.8239 50.1406 15.517C50.527 15.2102 50.813 14.8068 50.9986 14.3068C51.1842 13.8068 51.277 13.2652 51.277 12.6818C51.277 12.0985 51.1842 11.5549 50.9986 11.0511C50.813 10.5473 50.527 10.1402 50.1406 9.82955C49.7543 9.51894 49.2618 9.36364 48.6634 9.36364C48.0649 9.36364 47.5724 9.51894 47.1861 9.82955C46.7997 10.1402 46.5137 10.5473 46.3281 11.0511C46.1425 11.5549 46.0497 12.0985 46.0497 12.6818C46.0497 13.2652 46.1425 13.8068 46.3281 14.3068C46.5137 14.8068 46.7997 15.2102 47.1861 15.517C47.5724 15.8239 48.0649 15.9773 48.6634 15.9773ZM58.2102 17.1818C57.4223 17.1818 56.7311 16.9943 56.1364 16.6193C55.5455 16.2443 55.0833 15.7197 54.75 15.0455C54.4205 14.3712 54.2557 13.5833 54.2557 12.6818C54.2557 11.7727 54.4205 10.9792 54.75 10.3011C55.0833 9.62311 55.5455 9.09659 56.1364 8.72159C56.7311 8.34659 57.4223 8.15909 58.2102 8.15909C58.9981 8.15909 59.6875 8.34659 60.2784 8.72159C60.8731 9.09659 61.3352 9.62311 61.6648 10.3011C61.9981 10.9792 62.1648 11.7727 62.1648 12.6818C62.1648 13.5833 61.9981 14.3712 61.6648 15.0455C61.3352 15.7197 60.8731 16.2443 60.2784 16.6193C59.6875 16.9943 58.9981 17.1818 58.2102 17.1818ZM58.2102 15.9773C58.8087 15.9773 59.3011 15.8239 59.6875 15.517C60.0739 15.2102 60.3598 14.8068 60.5455 14.3068C60.7311 13.8068 60.8239 13.2652 60.8239 12.6818C60.8239 12.0985 60.7311 11.5549 60.5455 11.0511C60.3598 10.5473 60.0739 10.1402 59.6875 9.82955C59.3011 9.51894 58.8087 9.36364 58.2102 9.36364C57.6117 9.36364 57.1193 9.51894 56.733 9.82955C56.3466 10.1402 56.0606 10.5473 55.875 11.0511C55.6894 11.5549 55.5966 12.0985 55.5966 12.6818C55.5966 13.2652 55.6894 13.8068 55.875 14.3068C56.0606 14.8068 56.3466 15.2102 56.733 15.517C57.1193 15.8239 57.6117 15.9773 58.2102 15.9773ZM67.7344 20.4545C67.0866 20.4545 66.5298 20.3712 66.0639 20.2045C65.598 20.0417 65.2098 19.8258 64.8991 19.5568C64.5923 19.2917 64.348 19.0076 64.1662 18.7045L65.2344 17.9545C65.3556 18.1136 65.509 18.2955 65.6946 18.5C65.8802 18.7083 66.134 18.8883 66.456 19.0398C66.7817 19.1951 67.2079 19.2727 67.7344 19.2727C68.4389 19.2727 69.0204 19.1023 69.4787 18.7614C69.937 18.4205 70.1662 17.8864 70.1662 17.1591V15.3864H70.0526C69.9541 15.5455 69.8139 15.7424 69.6321 15.9773C69.4541 16.2083 69.1965 16.4148 68.8594 16.5966C68.526 16.7746 68.0753 16.8636 67.5071 16.8636C66.8026 16.8636 66.17 16.697 65.6094 16.3636C65.0526 16.0303 64.6113 15.5455 64.2855 14.9091C63.9635 14.2727 63.8026 13.5 63.8026 12.5909C63.8026 11.697 63.9598 10.9186 64.2741 10.2557C64.5885 9.58901 65.026 9.07386 65.5866 8.71023C66.1473 8.3428 66.795 8.15909 67.5298 8.15909C68.098 8.15909 68.5488 8.25379 68.8821 8.44318C69.2192 8.62879 69.4768 8.84091 69.6548 9.07955C69.8366 9.31439 69.9768 9.50758 70.0753 9.65909H70.2116V8.27273H71.5071V17.25C71.5071 18 71.3366 18.6098 70.9957 19.0795C70.6586 19.553 70.2041 19.8996 69.6321 20.1193C69.0639 20.3428 68.4313 20.4545 67.7344 20.4545ZM67.6889 15.6591C68.2268 15.6591 68.6813 15.536 69.0526 15.2898C69.4238 15.0436 69.706 14.6894 69.8991 14.2273C70.0923 13.7652 70.1889 13.2121 70.1889 12.5682C70.1889 11.9394 70.0942 11.3845 69.9048 10.9034C69.7154 10.4223 69.4351 10.0455 69.0639 9.77273C68.6927 9.5 68.2344 9.36364 67.6889 9.36364C67.1207 9.36364 66.6473 9.50758 66.2685 9.79545C65.8935 10.0833 65.6113 10.4697 65.4219 10.9545C65.2363 11.4394 65.1435 11.9773 65.1435 12.5682C65.1435 13.1742 65.2382 13.7102 65.4276 14.1761C65.6207 14.6383 65.9048 15.0019 66.2798 15.267C66.6586 15.5284 67.1283 15.6591 67.6889 15.6591ZM75.3026 5.36364V17H73.9616V5.36364H75.3026ZM81.4176 17.1818C80.5767 17.1818 79.8513 16.9962 79.2415 16.625C78.6354 16.25 78.1676 15.7273 77.8381 15.0568C77.5123 14.3826 77.3494 13.5985 77.3494 12.7045C77.3494 11.8106 77.5123 11.0227 77.8381 10.3409C78.1676 9.6553 78.6259 9.12121 79.2131 8.73864C79.804 8.35227 80.4934 8.15909 81.2812 8.15909C81.7358 8.15909 82.1847 8.23485 82.6278 8.38636C83.071 8.53788 83.4744 8.78409 83.8381 9.125C84.2017 9.46212 84.4915 9.90909 84.7074 10.4659C84.9233 11.0227 85.0312 11.7083 85.0312 12.5227V13.0909H78.304V11.9318H83.6676C83.6676 11.4394 83.5691 11 83.3722 10.6136C83.179 10.2273 82.9025 9.92235 82.5426 9.69886C82.1866 9.47538 81.7661 9.36364 81.2812 9.36364C80.7472 9.36364 80.285 9.49621 79.8949 9.76136C79.5085 10.0227 79.2112 10.3636 79.0028 10.7841C78.7945 11.2045 78.6903 11.6553 78.6903 12.1364V12.9091C78.6903 13.5682 78.804 14.1269 79.0312 14.5852C79.2623 15.0398 79.5824 15.3864 79.9915 15.625C80.4006 15.8598 80.8759 15.9773 81.4176 15.9773C81.7699 15.9773 82.0881 15.928 82.3722 15.8295C82.66 15.7273 82.9081 15.5758 83.1165 15.375C83.3248 15.1705 83.4858 14.9167 83.5994 14.6136L84.8949 14.9773C84.7585 15.4167 84.5294 15.803 84.2074 16.1364C83.8854 16.4659 83.4877 16.7235 83.0142 16.9091C82.5407 17.0909 82.0085 17.1818 81.4176 17.1818ZM91.571 20.2727V8.27273H92.8665V9.65909H93.0256C93.1241 9.50758 93.2604 9.31439 93.4347 9.07955C93.6127 8.84091 93.8665 8.62879 94.196 8.44318C94.5294 8.25379 94.9801 8.15909 95.5483 8.15909C96.2831 8.15909 96.9309 8.3428 97.4915 8.71023C98.0521 9.07765 98.4896 9.59848 98.804 10.2727C99.1184 10.947 99.2756 11.7424 99.2756 12.6591C99.2756 13.5833 99.1184 14.3845 98.804 15.0625C98.4896 15.7367 98.054 16.2595 97.4972 16.6307C96.9403 16.9981 96.2983 17.1818 95.571 17.1818C95.0104 17.1818 94.5616 17.089 94.2244 16.9034C93.8873 16.714 93.6278 16.5 93.446 16.2614C93.2642 16.0189 93.1241 15.8182 93.0256 15.6591H92.9119V20.2727H91.571ZM92.8892 12.6364C92.8892 13.2955 92.9858 13.8769 93.179 14.3807C93.3722 14.8807 93.6544 15.2727 94.0256 15.5568C94.3968 15.8371 94.8513 15.9773 95.3892 15.9773C95.9498 15.9773 96.4176 15.8295 96.7926 15.5341C97.1714 15.2348 97.4555 14.8333 97.6449 14.3295C97.8381 13.822 97.9347 13.2576 97.9347 12.6364C97.9347 12.0227 97.84 11.4697 97.6506 10.9773C97.465 10.4811 97.1828 10.089 96.804 9.80114C96.429 9.50947 95.9574 9.36364 95.3892 9.36364C94.8438 9.36364 94.3854 9.50189 94.0142 9.77841C93.643 10.0511 93.3627 10.4337 93.1733 10.9261C92.9839 11.4148 92.8892 11.9848 92.8892 12.6364ZM102.662 5.36364V17H101.321V5.36364H102.662ZM107.686 17.2045C107.133 17.2045 106.631 17.1004 106.18 16.892C105.73 16.6799 105.372 16.375 105.107 15.9773C104.841 15.5758 104.709 15.0909 104.709 14.5227C104.709 14.0227 104.807 13.6174 105.004 13.3068C105.201 12.9924 105.464 12.7462 105.794 12.5682C106.124 12.3902 106.487 12.2576 106.885 12.1705C107.286 12.0795 107.69 12.0076 108.095 11.9545C108.625 11.8864 109.055 11.8352 109.385 11.8011C109.718 11.7633 109.961 11.7008 110.112 11.6136C110.268 11.5265 110.345 11.375 110.345 11.1591V11.1136C110.345 10.553 110.192 10.1174 109.885 9.80682C109.582 9.49621 109.122 9.34091 108.504 9.34091C107.864 9.34091 107.362 9.48106 106.999 9.76136C106.635 10.0417 106.379 10.3409 106.232 10.6591L104.959 10.2045C105.186 9.67424 105.489 9.26136 105.868 8.96591C106.25 8.66667 106.667 8.45833 107.118 8.34091C107.572 8.2197 108.019 8.15909 108.459 8.15909C108.739 8.15909 109.061 8.19318 109.425 8.26136C109.792 8.32576 110.146 8.46023 110.487 8.66477C110.832 8.86932 111.118 9.17803 111.345 9.59091C111.572 10.0038 111.686 10.5568 111.686 11.25V17H110.345V15.8182H110.277C110.186 16.0076 110.035 16.2102 109.822 16.4261C109.61 16.642 109.328 16.8258 108.976 16.9773C108.624 17.1288 108.194 17.2045 107.686 17.2045ZM107.891 16C108.421 16 108.868 15.8958 109.232 15.6875C109.599 15.4792 109.875 15.2102 110.061 14.8807C110.25 14.5511 110.345 14.2045 110.345 13.8409V12.6136C110.288 12.6818 110.163 12.7443 109.97 12.8011C109.781 12.8542 109.561 12.9015 109.311 12.9432C109.065 12.9811 108.824 13.0152 108.589 13.0455C108.358 13.072 108.171 13.0947 108.027 13.1136C107.679 13.1591 107.353 13.233 107.05 13.3352C106.75 13.4337 106.508 13.5833 106.322 13.7841C106.141 13.9811 106.05 14.25 106.05 14.5909C106.05 15.0568 106.222 15.4091 106.567 15.6477C106.915 15.8826 107.357 16 107.891 16ZM114.685 20.2727C114.457 20.2727 114.255 20.2538 114.077 20.2159C113.899 20.1818 113.776 20.1477 113.707 20.1136L114.048 18.9318C114.374 19.0152 114.662 19.0455 114.912 19.0227C115.162 19 115.384 18.8883 115.577 18.6875C115.774 18.4905 115.954 18.1705 116.116 17.7273L116.366 17.0455L113.139 8.27273H114.594L117.003 15.2273H117.094L119.503 8.27273H120.957L117.253 18.2727C117.086 18.7235 116.88 19.0966 116.634 19.392C116.387 19.6913 116.101 19.9129 115.776 20.0568C115.454 20.2008 115.09 20.2727 114.685 20.2727Z" fill="#3A3A3A"/>
<defs>
<clipPath id="clip0_1378_2962">
<rect width="22.43" height="24" fill="white"/>
</clipPath>
</defs>
</svg>
