<svg width="13" height="14" viewBox="0 0 13 14" fill="none" xmlns="http://www.w3.org/2000/svg">
<path d="M8.98332 3.10534L10.3953 4.51667M9.89132 1.86201L6.07332 5.68001C5.87604 5.87701 5.7415 6.128 5.68665 6.40134L5.33398 8.16667L7.09932 7.81334C7.37265 7.75867 7.62332 7.62467 7.82065 7.42734L11.6387 3.60934C11.7534 3.49461 11.8444 3.3584 11.9065 3.2085C11.9686 3.05859 12.0005 2.89793 12.0005 2.73567C12.0005 2.57342 11.9686 2.41275 11.9065 2.26285C11.8444 2.11294 11.7534 1.97674 11.6387 1.86201C11.5239 1.74728 11.3877 1.65627 11.2378 1.59417C11.0879 1.53208 10.9272 1.50012 10.765 1.50012C10.6027 1.50012 10.4421 1.53208 10.2922 1.59417C10.1423 1.65627 10.006 1.74728 9.89132 1.86201V1.86201Z" stroke="white" stroke-width="1.33333" stroke-linecap="round" stroke-linejoin="round"/>
<path d="M10.667 9.50004V11.5C10.667 11.8537 10.5265 12.1928 10.2765 12.4428C10.0264 12.6929 9.68728 12.8334 9.33366 12.8334H2.00033C1.6467 12.8334 1.30756 12.6929 1.05752 12.4428C0.807468 12.1928 0.666992 11.8537 0.666992 11.5V4.16671C0.666992 3.81309 0.807468 3.47395 1.05752 3.2239C1.30756 2.97385 1.6467 2.83337 2.00033 2.83337H4.00033" stroke="white" stroke-width="1.33333" stroke-linecap="round" stroke-linejoin="round"/>
</svg>
