<svg width="25" height="25" viewBox="0 0 25 25" fill="none" xmlns="http://www.w3.org/2000/svg">
<path d="M23.108 12.3292L13.6744 2.90045L13.0421 2.26813C12.898 2.125 12.7032 2.04468 12.5001 2.04468C12.297 2.04468 12.1022 2.125 11.9581 2.26813L1.89219 12.3292C1.74456 12.4762 1.62789 12.6514 1.54906 12.8442C1.47023 13.0371 1.43083 13.2438 1.43321 13.4522C1.44297 14.3116 2.1583 14.9976 3.01768 14.9976H4.05528V22.9493H20.9449V14.9976H22.0045C22.422 14.9976 22.815 14.834 23.1105 14.5386C23.2559 14.3936 23.3712 14.2212 23.4495 14.0314C23.5279 13.8416 23.5678 13.6381 23.567 13.4327C23.567 13.0176 23.4034 12.6246 23.108 12.3292ZM13.8673 21.1915H11.1329V16.211H13.8673V21.1915ZM19.1871 13.2398V21.1915H15.4298V15.6251C15.4298 15.0855 14.9928 14.6485 14.4532 14.6485H10.547C10.0074 14.6485 9.57041 15.0855 9.57041 15.6251V21.1915H5.81309V13.2398H3.46934L12.5025 4.21393L13.0665 4.77789L21.5333 13.2398H19.1871Z" fill="white"/>
</svg>
