<svg width="50" height="50" viewBox="0 0 50 50" fill="none" xmlns="http://www.w3.org/2000/svg">
<rect width="50" height="50" rx="12" fill="white"/>
<path fill-rule="evenodd" clip-rule="evenodd" d="M19.3313 11.3325C20.7975 11.265 21.265 11.25 25 11.25C28.735 11.25 29.2025 11.2662 30.6675 11.3325C32.1325 11.3987 33.1325 11.6325 34.0075 11.9713C34.9237 12.3175 35.755 12.8587 36.4425 13.5587C37.1425 14.245 37.6825 15.075 38.0275 15.9925C38.3675 16.8675 38.6 17.8675 38.6675 19.33C38.735 20.7987 38.75 21.2662 38.75 25C38.75 28.735 38.7337 29.2025 38.6675 30.6688C38.6012 32.1313 38.3675 33.1313 38.0275 34.0063C37.6825 34.9239 37.1416 35.7552 36.4425 36.4425C35.755 37.1425 34.9237 37.6825 34.0075 38.0275C33.1325 38.3675 32.1325 38.6 30.67 38.6675C29.2025 38.735 28.735 38.75 25 38.75C21.265 38.75 20.7975 38.7337 19.3313 38.6675C17.8688 38.6012 16.8688 38.3675 15.9938 38.0275C15.0762 37.6825 14.2448 37.1416 13.5575 36.4425C12.858 35.7558 12.3166 34.9249 11.9713 34.0075C11.6325 33.1325 11.4 32.1325 11.3325 30.67C11.265 29.2013 11.25 28.7337 11.25 25C11.25 21.265 11.2662 20.7975 11.3325 19.3325C11.3987 17.8675 11.6325 16.8675 11.9713 15.9925C12.3172 15.0751 12.8589 14.2441 13.5587 13.5575C14.2451 12.8581 15.0756 12.3168 15.9925 11.9713C16.8675 11.6325 17.8675 11.4 19.33 11.3325H19.3313ZM30.5562 13.8075C29.1062 13.7413 28.6712 13.7275 25 13.7275C21.3287 13.7275 20.8938 13.7413 19.4437 13.8075C18.1025 13.8688 17.375 14.0925 16.89 14.2812C16.2488 14.5312 15.79 14.8275 15.3088 15.3088C14.8526 15.7526 14.5015 16.2929 14.2812 16.89C14.0925 17.375 13.8688 18.1025 13.8075 19.4437C13.7413 20.8938 13.7275 21.3287 13.7275 25C13.7275 28.6712 13.7413 29.1062 13.8075 30.5562C13.8688 31.8975 14.0925 32.625 14.2812 33.11C14.5013 33.7063 14.8525 34.2475 15.3088 34.6912C15.7525 35.1475 16.2938 35.4988 16.89 35.7188C17.375 35.9075 18.1025 36.1313 19.4437 36.1925C20.8938 36.2588 21.3275 36.2725 25 36.2725C28.6725 36.2725 29.1062 36.2588 30.5562 36.1925C31.8975 36.1313 32.625 35.9075 33.11 35.7188C33.7513 35.4688 34.21 35.1725 34.6912 34.6912C35.1475 34.2475 35.4988 33.7063 35.7188 33.11C35.9075 32.625 36.1313 31.8975 36.1925 30.5562C36.2588 29.1062 36.2725 28.6712 36.2725 25C36.2725 21.3287 36.2588 20.8938 36.1925 19.4437C36.1313 18.1025 35.9075 17.375 35.7188 16.89C35.4688 16.2488 35.1725 15.79 34.6912 15.3088C34.2474 14.8526 33.7071 14.5015 33.11 14.2812C32.625 14.0925 31.8975 13.8688 30.5562 13.8075ZM23.2438 29.2388C24.2246 29.647 25.3167 29.7021 26.3337 29.3947C27.3506 29.0872 28.2292 28.4361 28.8195 27.5528C29.4098 26.6695 29.6751 25.6086 29.5701 24.5514C29.465 23.4942 28.9963 22.5062 28.2437 21.7562C27.764 21.2768 27.184 20.9098 26.5454 20.6814C25.9068 20.4531 25.2255 20.3692 24.5506 20.4358C23.8757 20.5023 23.2239 20.7177 22.6423 21.0664C22.0606 21.4151 21.5634 21.8884 21.1866 22.4523C20.8098 23.0162 20.5627 23.6566 20.4631 24.3275C20.3636 24.9983 20.4139 25.6829 20.6107 26.3319C20.8074 26.9809 21.1456 27.5783 21.6009 28.0809C22.0562 28.5835 22.6173 28.979 23.2438 29.2388ZM20.0025 20.0025C20.6588 19.3462 21.4379 18.8256 22.2954 18.4705C23.1528 18.1153 24.0719 17.9325 25 17.9325C25.9281 17.9325 26.8472 18.1153 27.7046 18.4705C28.5621 18.8256 29.3412 19.3462 29.9975 20.0025C30.6538 20.6588 31.1744 21.4379 31.5295 22.2954C31.8847 23.1528 32.0675 24.0719 32.0675 25C32.0675 25.9281 31.8847 26.8472 31.5295 27.7046C31.1744 28.5621 30.6538 29.3412 29.9975 29.9975C28.6721 31.3229 26.8744 32.0675 25 32.0675C23.1256 32.0675 21.3279 31.3229 20.0025 29.9975C18.6771 28.6721 17.9325 26.8744 17.9325 25C17.9325 23.1256 18.6771 21.3279 20.0025 20.0025ZM33.635 18.985C33.7976 18.8316 33.9278 18.6471 34.0179 18.4425C34.1079 18.2378 34.156 18.0172 34.1593 17.7937C34.1625 17.5701 34.1209 17.3482 34.0369 17.141C33.9528 16.9338 33.828 16.7456 33.67 16.5875C33.5119 16.4295 33.3237 16.3047 33.1165 16.2206C32.9093 16.1366 32.6874 16.095 32.4638 16.0982C32.2403 16.1015 32.0197 16.1496 31.815 16.2396C31.6104 16.3297 31.4259 16.4599 31.2725 16.6225C30.9741 16.9388 30.8108 17.3589 30.8171 17.7937C30.8235 18.2284 30.999 18.6436 31.3064 18.9511C31.6139 19.2585 32.0291 19.434 32.4638 19.4404C32.8986 19.4467 33.3187 19.2834 33.635 18.985Z" fill="black"/>
</svg>
