<svg width="74" height="74" viewBox="0 0 74 74" fill="none" xmlns="http://www.w3.org/2000/svg">
<g clip-path="url(#clip0_936_2777)">
<path d="M59.6625 30.9568C58.6268 25.7081 55.8009 20.9818 51.6676 17.5852C47.5343 14.1885 42.3499 12.3323 37 12.3335C28.0892 12.3335 20.35 17.3902 16.4958 24.7902C11.9641 25.2799 7.7731 27.4271 4.72826 30.8191C1.68341 34.2111 -0.000529414 38.6087 1.24853e-07 43.1668C1.24853e-07 53.3727 8.29417 61.6668 18.5 61.6668H58.5833C67.0933 61.6668 74 54.7602 74 46.2502C74 38.1102 67.6792 31.5118 59.6625 30.9568ZM58.5833 55.5002H18.5C11.6858 55.5002 6.16667 49.981 6.16667 43.1668C6.16667 36.846 10.8842 31.5735 17.1433 30.926L20.4425 30.5868L21.9842 27.6577C23.4021 24.8974 25.5543 22.5819 28.2036 20.9662C30.853 19.3505 33.8968 18.4971 37 18.5002C45.0783 18.5002 52.0467 24.2352 53.6192 32.1593L54.5442 36.7843L59.2617 37.1235C61.5795 37.2794 63.7523 38.3075 65.3427 40.0008C66.9331 41.6942 67.823 43.9271 67.8333 46.2502C67.8333 51.3377 63.6708 55.5002 58.5833 55.5002ZM30.8333 43.7218L24.3892 37.2777L20.0417 41.6252L30.8333 52.4168L49.3642 33.886L45.0167 29.5385L30.8333 43.7218Z" fill="#1E5DFE"/>
</g>
<defs>
<clipPath id="clip0_936_2777">
<rect width="74" height="74" fill="white"/>
</clipPath>
</defs>
</svg>
