<svg width="15" height="19" viewBox="0 0 15 19" fill="none" xmlns="http://www.w3.org/2000/svg">
<path d="M7.21107 0.404297C3.23487 0.404297 0 3.57037 0 7.46194V7.65704C0 9.62519 1.15291 11.9187 3.42682 14.4738C5.07523 16.326 6.7006 17.6176 6.76895 17.6717L7.21107 18.0213L7.6532 17.6717C7.72158 17.6176 9.34696 16.3261 10.9953 14.4738C13.2692 11.9187 14.4221 9.62523 14.4221 7.65707V7.46198C14.4221 3.57037 11.1873 0.404297 7.21107 0.404297ZM13.0151 7.65707C13.0151 10.9831 8.63638 15.0094 7.21107 16.2317C5.78538 15.009 1.40702 10.9829 1.40702 7.65707V7.46198C1.40702 4.32973 4.01073 1.78142 7.21107 1.78142C10.4114 1.78142 13.0151 4.32973 13.0151 7.46198V7.65707Z" fill="white"/>
</svg>
