<svg width="56" height="56" viewBox="0 0 56 56" fill="none" xmlns="http://www.w3.org/2000/svg">
<g clip-path="url(#clip0_528_2365)">
<path d="M56 28C56.005 31.7903 55.2378 35.542 53.7451 39.026L53.6523 39.2398C51.1274 44.9838 46.7493 49.7153 41.218 52.6776C35.6868 55.6399 29.322 56.6618 23.1414 55.58C22.9733 55.5502 22.8054 55.5192 22.6378 55.4872C20.9058 55.1515 19.2099 54.6513 17.5729 53.9936C17.307 53.8867 17.043 53.776 16.7809 53.6614C16.602 53.5835 16.4231 53.5032 16.2458 53.4204C11.3963 51.1727 7.29037 47.5856 4.41201 43.0817C1.53366 38.5779 0.00284693 33.3451 0 28C0 12.5362 12.5362 0 28 0C43.4638 0 56 12.5362 56 28Z" fill="#3434FF"/>
<path opacity="0.2" d="M23.1411 55.5804C22.9729 55.5505 22.805 55.5196 22.6374 55.4876C22.5281 52.314 22.1528 45.8002 20.8729 38.9784C20.1729 35.2447 19.2012 31.4175 17.8534 27.9962C17.3916 26.8124 16.8642 25.6553 16.2736 24.5302C14.9117 21.958 13.2599 19.7926 11.2568 18.3255L11.5517 17.9229C13.2177 19.1439 14.7149 20.8582 16.0433 23.0656C16.4418 23.7266 16.8245 24.4319 17.1915 25.1813C17.585 25.9832 17.9603 26.8345 18.3173 27.7353C18.5451 28.3085 18.7652 28.9017 18.9775 29.5147C19.902 32.1763 20.6879 35.2133 21.3352 38.6255C21.4785 39.3793 21.6149 40.1516 21.7444 40.9425C22.7476 47.0702 23.05 52.7356 23.1411 55.5804Z" fill="black"/>
<path opacity="0.2" d="M16.7813 53.6617C16.6024 53.5839 16.4234 53.5035 16.2461 53.4207C16.073 51.5402 15.7549 49.2074 15.1734 46.9931C14.9187 45.9986 14.5917 45.024 14.195 44.0771C13.5315 42.5239 12.6724 41.2034 11.5615 40.3891L11.8564 39.9873C13.0195 40.8389 13.9167 42.1851 14.61 43.7598C15.3912 45.5343 15.9123 47.5995 16.2594 49.5727C16.517 51.0382 16.6794 52.4539 16.7813 53.6617Z" fill="black"/>
<path opacity="0.2" d="M8.47106 18.3132C9.84765 18.3132 10.9636 17.1973 10.9636 15.8207C10.9636 14.4441 9.84765 13.3281 8.47106 13.3281C7.09447 13.3281 5.97852 14.4441 5.97852 15.8207C5.97852 17.1973 7.09447 18.3132 8.47106 18.3132Z" fill="black"/>
<path opacity="0.2" d="M9.27379 39.7702C10.6504 39.7702 11.7663 38.6543 11.7663 37.2777C11.7663 35.9011 10.6504 34.7852 9.27379 34.7852C7.8972 34.7852 6.78125 35.9011 6.78125 37.2777C6.78125 38.6543 7.8972 39.7702 9.27379 39.7702Z" fill="black"/>
<path opacity="0.2" d="M18.3669 20.0073C17.8383 22.9893 19.0051 25.6895 19.0051 25.6895C19.0051 25.6895 21.0289 23.5549 21.5575 20.5728C22.086 17.5908 20.9192 14.8906 20.9192 14.8906C20.9192 14.8906 18.8955 17.0253 18.3669 20.0073Z" fill="black"/>
<path opacity="0.2" d="M10.0831 27.0861C12.9274 28.1262 15.7855 27.4587 15.7855 27.4587C15.7855 27.4587 14.0321 25.105 11.1878 24.0649C8.34349 23.0249 5.48535 23.6923 5.48535 23.6923C5.48535 23.6923 7.23876 26.046 10.0831 27.0861Z" fill="black"/>
<path opacity="0.2" d="M9.60066 46.0868C11.5943 46.8158 13.6004 46.3402 13.6004 46.3402C13.6004 46.3402 12.3743 44.6827 10.3806 43.9537C8.38701 43.2247 6.38086 43.7003 6.38086 43.7003C6.38086 43.7003 7.60703 45.3578 9.60066 46.0868Z" fill="black"/>
<path d="M27.9422 34.2009C33.9709 34.2009 38.8581 29.3137 38.8581 23.285C38.8581 17.2563 33.9709 12.3691 27.9422 12.3691C21.9136 12.3691 17.0264 17.2563 17.0264 23.285C17.0264 29.3137 21.9136 34.2009 27.9422 34.2009Z" fill="#9E9E9E"/>
<path d="M23.6787 31.6417C23.6787 31.6417 25.0432 38.123 25.0432 38.8052C25.0432 39.4875 31.5245 42.5575 31.5245 42.5575L37.3235 41.5342L39.3703 35.394C39.3703 35.394 35.9591 30.2772 35.9591 28.2305L23.6787 31.6417Z" fill="#9E9E9E"/>
<path d="M53.7452 39.0258L53.6524 39.2395C51.1275 44.9836 46.7493 49.7151 41.2181 52.6774C35.6869 55.6396 29.3221 56.6616 23.1415 55.5798C22.9733 55.5499 22.8055 55.519 22.6378 55.487C20.9059 55.1512 19.21 54.6511 17.573 53.9934C17.3071 53.8865 17.0431 53.7758 16.781 53.6612C16.6021 53.5833 16.4232 53.5029 16.2459 53.4201C14.639 52.6757 13.1065 51.7803 11.669 50.746L10.375 46.9925L11.1023 46.4375L12.5984 45.2951L14.1948 44.0766L14.6098 43.7593L20.8733 38.9777L21.3356 38.6248L24.5912 36.1396L24.592 36.1388C24.592 36.1388 28.1128 41.8755 33.2298 40.1698C38.3468 38.4641 38.235 33.5732 38.235 33.5732L53.7452 39.0258Z" fill="#3A3A3A"/>
<path d="M18.4764 14.49C18.4764 14.49 21.9422 6.98085 28.5849 8.71372C35.2275 10.4466 38.9821 13.0459 39.2709 15.6452C39.5597 18.2445 39.1265 22.1435 39.1265 22.1435C39.1265 22.1435 38.4045 16.8005 33.7835 17.9557C29.1625 19.111 21.9422 18.2445 21.9422 18.2445L20.7869 28.6418C20.7869 28.6418 19.4873 26.7645 18.0432 27.9197C16.5991 29.075 13.8554 16.8005 18.4764 14.49Z" fill="#3A3A3A"/>
<path d="M17.5733 53.994C17.3074 53.8871 17.0434 53.7764 16.7814 53.6618C16.6024 53.5839 16.4235 53.5036 16.2462 53.4207C13.5886 52.1884 11.1403 50.5476 8.99023 48.558C9.75154 47.5209 10.3753 46.9932 10.3753 46.9932H15.4924L16.2595 49.5728L17.5733 53.994Z" fill="#2F2E41"/>
<path d="M49.2625 38.4648L53.6522 39.2402C52.4775 41.9164 50.8909 44.3921 48.9502 46.5774L49.2625 38.4648Z" fill="#2F2E41"/>
</g>
<defs>
<clipPath id="clip0_528_2365">
<rect width="56" height="56" fill="white"/>
</clipPath>
</defs>
</svg>
