<svg width="48" height="48" viewBox="0 0 48 48" fill="none" xmlns="http://www.w3.org/2000/svg">
<path d="M38.2028 20.6115C37.7224 13.173 32.5496 6 23.0625 6C14.3854 6 7.69388 12.4496 7.3395 21.057C2.592 22.5341 0 27.6146 0 31.3125C0 37.0061 4.73175 42 10.125 42H17.4375C17.5867 42 17.7298 41.9407 17.8352 41.8352C17.9407 41.7298 18 41.5867 18 41.4375C18 41.2883 17.9407 41.1452 17.8352 41.0398C17.7298 40.9343 17.5867 40.875 17.4375 40.875H10.125C5.33025 40.875 1.125 36.4065 1.125 31.3125C1.125 27.8801 4.13325 21.75 10.125 21.75H11.8125C11.9617 21.75 12.1048 21.6907 12.2102 21.5852C12.3157 21.4798 12.375 21.3367 12.375 21.1875C12.375 21.0383 12.3157 20.8952 12.2102 20.7898C12.1048 20.6843 11.9617 20.625 11.8125 20.625H10.125C9.55237 20.625 9.01125 20.6891 8.48362 20.7814C8.92462 14.0426 14.0468 7.125 23.0625 7.125C32.724 7.125 37.125 14.7064 37.125 21.75V23.4375C37.125 23.5867 37.1843 23.7298 37.2898 23.8352C37.3952 23.9407 37.5383 24 37.6875 24C37.8367 24 37.9798 23.9407 38.0852 23.8352C38.1907 23.7298 38.25 23.5867 38.25 23.4375V21.7399C41.6464 22.1122 46.125 25.7572 46.125 31.3125C46.125 35.6168 41.9726 40.875 37.125 40.875H28.6875C25.0448 40.875 23.625 39.4552 23.625 35.8125V20.3809L28.2127 24.9596C28.2646 25.0134 28.3266 25.0564 28.3952 25.0859C28.4637 25.1155 28.5375 25.1311 28.6122 25.1319C28.6869 25.1326 28.761 25.1185 28.8302 25.0903C28.8993 25.0621 28.9622 25.0204 29.0151 24.9677C29.068 24.915 29.1098 24.8522 29.1382 24.7831C29.1666 24.7141 29.1809 24.64 29.1804 24.5653C29.1798 24.4906 29.1644 24.4168 29.135 24.3481C29.1057 24.2795 29.0629 24.2173 29.0092 24.1654L23.9906 19.1569C23.3224 18.4909 22.8038 18.4909 22.1366 19.1569L17.118 24.1654C17.0155 24.2715 16.9588 24.4136 16.9601 24.561C16.9614 24.7085 17.0206 24.8496 17.1249 24.9539C17.2291 25.0582 17.3702 25.1173 17.5177 25.1186C17.6652 25.1199 17.8073 25.0632 17.9134 24.9608L22.5 20.3809V35.8125C22.5 40.092 24.408 42 28.6875 42H37.125C42.5779 42 47.25 36.123 47.25 31.3125C47.25 25.4996 42.4991 20.9535 38.2028 20.6115Z" fill="#1E5DFE"/>
</svg>
