<svg width="30" height="30" viewBox="0 0 30 30" fill="none" xmlns="http://www.w3.org/2000/svg">
<path d="M26.5429 6.60937L15.2929 2.85937C15.102 2.80062 14.8979 2.80062 14.707 2.85937L3.46868 6.60937H3.44525L3.32806 6.66796H3.31634L3.19915 6.73827C3.19915 6.74999 3.18743 6.74999 3.17571 6.76171L3.08196 6.84374L2.99993 6.93749C2.99993 6.94921 2.98821 6.94921 2.98821 6.96093L2.9179 7.0664C2.9179 7.07812 2.9179 7.07812 2.90618 7.08983L2.85931 7.1953L2.82415 7.32421V7.35937C2.81259 7.40529 2.80863 7.45279 2.81243 7.49999V16.875C2.81243 17.1236 2.9112 17.3621 3.08702 17.5379C3.26284 17.7137 3.50129 17.8125 3.74993 17.8125C3.99857 17.8125 4.23703 17.7137 4.41285 17.5379C4.58866 17.3621 4.68743 17.1236 4.68743 16.875V8.80077L8.62493 10.1133C7.8852 11.2973 7.49521 12.6664 7.49993 14.0625C7.50036 15.3322 7.82315 16.5811 8.43805 17.692C9.05295 18.8029 9.93982 19.7395 11.0156 20.4141C8.78009 21.2597 6.87164 22.7947 5.56634 24.7969C5.43329 25.0073 5.38822 25.2615 5.44082 25.5048C5.49343 25.7481 5.63951 25.961 5.84759 26.0976C5.9497 26.1653 6.06423 26.212 6.18453 26.2351C6.30482 26.2582 6.42851 26.2572 6.54841 26.2321C6.66831 26.207 6.78204 26.1584 6.88302 26.0891C6.98399 26.0197 7.0702 25.931 7.13665 25.8281C7.98758 24.5174 9.15267 23.4401 10.526 22.6944C11.8993 21.9486 13.4372 21.558 14.9999 21.558C16.5627 21.558 18.1006 21.9486 19.4739 22.6944C20.8472 23.4401 22.0123 24.5174 22.8632 25.8281C22.9488 25.9581 23.0654 26.0647 23.2024 26.1383C23.3395 26.212 23.4928 26.2504 23.6484 26.25C23.828 26.2519 24.0038 26.1987 24.1523 26.0976C24.3604 25.961 24.5064 25.7481 24.559 25.5048C24.6116 25.2615 24.5666 25.0073 24.4335 24.7969C23.1282 22.7947 21.2198 21.2597 18.9843 20.4141C20.06 19.7395 20.9469 18.8029 21.5618 17.692C22.1767 16.5811 22.4995 15.3322 22.4999 14.0625C22.5047 12.6664 22.1147 11.2973 21.3749 10.1133L26.5429 8.39062C26.7305 8.32897 26.8938 8.20968 27.0096 8.04975C27.1253 7.88982 27.1877 7.69743 27.1877 7.49999C27.1877 7.30256 27.1253 7.11016 27.0096 6.95023C26.8938 6.79031 26.7305 6.67102 26.5429 6.60937ZM14.9999 19.6875C13.5081 19.6875 12.0773 19.0949 11.0225 18.04C9.96757 16.9851 9.37493 15.5543 9.37493 14.0625C9.37719 12.8622 9.75863 11.6933 10.4648 10.7226L14.707 12.1406C14.8973 12.2032 15.1026 12.2032 15.2929 12.1406L19.5351 10.7226C20.2412 11.6933 20.6227 12.8622 20.6249 14.0625C20.6249 15.5543 20.0323 16.9851 18.9774 18.04C17.9225 19.0949 16.4918 19.6875 14.9999 19.6875Z" fill="black"/>
</svg>
