<svg width="30" height="30" viewBox="0 0 30 30" fill="none" xmlns="http://www.w3.org/2000/svg">
<path d="M16.2476 27.5H13.7476V23.75H16.2476V27.5ZM22.9526 24.7225L20.3013 22.0712L22.0688 20.3037L24.7213 22.9562L22.9551 24.7225H22.9526ZM7.04256 24.7225L5.27506 22.955L7.92506 20.3025L9.69381 22.07L7.04381 24.7213V24.7225H7.04256ZM14.9976 21.2588C13.3376 21.2581 11.746 20.598 10.5727 19.4238C9.39941 18.2496 8.74065 16.6574 8.74131 14.9975C8.74197 13.3376 9.40201 11.7459 10.5762 10.5726C11.7504 9.39935 13.3426 8.74059 15.0026 8.74125C15.8245 8.74158 16.6383 8.90379 17.3975 9.21863C18.1567 9.53346 18.8465 9.99475 19.4274 10.5762C20.0084 11.1576 20.4691 11.8477 20.7833 12.6072C21.0976 13.3667 21.2591 14.1806 21.2588 15.0025C21.2585 15.8244 21.0963 16.6382 20.7814 17.3974C20.4666 18.1567 20.0053 18.8464 19.4239 19.4274C18.8425 20.0083 18.1523 20.4691 17.3929 20.7833C16.6334 21.0975 15.8195 21.2591 14.9976 21.2588ZM14.9976 11.2413C14.504 11.2416 14.0152 11.3391 13.5593 11.5283C13.1034 11.7175 12.6893 11.9947 12.3405 12.3439C11.9917 12.6932 11.7151 13.1077 11.5265 13.5639C11.3379 14.0201 11.241 14.5089 11.2413 15.0025C11.2416 15.4961 11.3392 15.9848 11.5284 16.4407C11.7176 16.8966 11.9947 17.3108 12.344 17.6596C12.6933 18.0084 13.1078 18.285 13.564 18.4736C14.0201 18.6622 14.509 18.7591 15.0026 18.7588C15.9994 18.7581 16.9552 18.3614 17.6597 17.6561C18.3641 16.9507 18.7595 15.9944 18.7588 14.9975C18.7581 14.0006 18.3615 13.0448 17.6561 12.3404C16.9508 11.636 15.9944 11.2406 14.9976 11.2413ZM27.4976 16.25H23.7476V13.75H27.4976V16.25ZM6.24756 16.25H2.49756V13.75H6.24756V16.25ZM22.0676 9.6975L20.3013 7.92875L22.9526 5.27625L24.7213 7.045L22.0688 9.69625L22.0676 9.6975ZM7.92631 9.6975L5.27631 7.04625L7.04506 5.27875L9.69506 7.93125L7.92756 9.69625V9.6975H7.92631ZM16.2476 6.25H13.7476V2.5H16.2476V6.25Z" fill="#0152AE"/>
</svg>
