<svg width="18" height="18" viewBox="0 0 18 18" fill="none" xmlns="http://www.w3.org/2000/svg">
<path d="M12.9365 17.9574C12.3555 17.9574 11.7794 17.8568 11.216 17.6565C8.73416 16.7741 6.43047 15.3369 4.5539 13.5003C2.67734 11.6637 1.20892 9.40901 0.307378 6.97996C0.0176675 6.19933 -0.067829 5.39353 0.0533496 4.58483C0.166865 3.82733 0.466665 3.09195 0.920373 2.45818C1.37608 1.82162 1.98363 1.29216 2.6773 0.927072C3.41703 0.537758 4.22443 0.340332 5.07715 0.340332C5.34236 0.340332 5.57156 0.52169 5.62714 0.775475L6.51002 4.80792C6.54999 4.99052 6.49266 5.18051 6.35777 5.31257L4.84917 6.78903C6.27231 9.5583 8.58155 11.8184 11.411 13.2113L12.9196 11.7348C13.0545 11.6028 13.2487 11.5467 13.4352 11.5858L17.5553 12.4499C17.8146 12.5042 17.9999 12.7286 17.9999 12.9881C17.9999 13.8227 17.7982 14.613 17.4004 15.337C17.0274 16.0159 16.4864 16.6105 15.836 17.0565C15.1885 17.5006 14.4371 17.794 13.6631 17.9051C13.4206 17.9399 13.1781 17.9573 12.9365 17.9574ZM4.62773 1.46544C3.50295 1.58696 2.50462 2.16396 1.84167 3.09002C1.09618 4.13135 0.922341 5.41214 1.36473 6.60406C3.098 11.274 6.82867 14.9253 11.6001 16.6216C12.8179 17.0546 14.1265 16.8845 15.1905 16.1548C16.1367 15.506 16.7263 14.5289 16.8504 13.4281L13.4987 12.7251L11.9232 14.2671C11.7556 14.4312 11.5008 14.4748 11.2863 14.3761C7.93994 12.8374 5.2312 10.1863 3.65907 6.91114C3.55828 6.70116 3.60279 6.45185 3.77044 6.28779L5.34594 4.74582L4.62773 1.46544Z" fill="white"/>
</svg>
