<svg width="50" height="50" viewBox="0 0 50 50" fill="none" xmlns="http://www.w3.org/2000/svg">
<rect width="50" height="50" rx="12" fill="white"/>
<path d="M25 10.4688C16.9722 10.4688 10.4688 16.9731 10.4688 25C10.4688 33.0269 16.9731 39.5312 25 39.5312C33.0278 39.5312 39.5312 33.0269 39.5312 25C39.5312 16.9731 33.0269 10.4688 25 10.4688ZM32.1372 20.4241L29.7522 31.6628C29.5759 32.4597 29.1016 32.6528 28.4397 32.2778L24.8069 29.6003L23.0547 31.2878C22.8616 31.4809 22.6975 31.645 22.3225 31.645L22.5803 27.9475L29.3125 21.865C29.6059 21.6072 29.2478 21.4609 28.8606 21.7188L20.5403 26.9566L16.9544 25.8372C16.1753 25.5916 16.1575 25.0581 17.1184 24.6831L31.1284 19.2803C31.7791 19.0459 32.3472 19.4388 32.1362 20.4231L32.1372 20.4241Z" fill="black"/>
</svg>
