<svg width="27" height="30" viewBox="0 0 27 30" fill="none" xmlns="http://www.w3.org/2000/svg">
<path d="M21.2143 7.5C21.2143 11.6426 17.7609 15 13.5 15C9.23906 15 5.78571 11.6426 5.78571 7.5C5.78571 3.35801 9.23906 0 13.5 0C17.7609 0 21.2143 3.35801 21.2143 7.5ZM12.602 21.0469L10.6071 17.8125H16.3929L14.398 21.0469L16.4049 28.3066L18.7855 18.8613C23.4382 19.5645 27 23.4785 27 28.2012C27 29.1914 26.1683 30 25.1498 30H1.85143C0.828683 30 0 29.1914 0 28.2012C0 23.4785 3.56123 19.5645 8.21451 18.8613L10.5951 28.3066L12.602 21.0469Z" fill="black"/>
</svg>
