<svg width="50" height="50" viewBox="0 0 50 50" fill="none" xmlns="http://www.w3.org/2000/svg">
<rect width="50" height="50" rx="12" fill="white"/>
<path d="M38.125 24.918C38.125 24.8535 38.125 24.7803 38.1221 24.6953C38.1191 24.458 38.1133 24.1914 38.1074 23.9072C38.084 23.0898 38.043 22.2754 37.9785 21.5078C37.8906 20.4502 37.7617 19.5684 37.5859 18.9062C37.4004 18.2153 37.0368 17.5851 36.5315 17.0787C36.0261 16.5723 35.3966 16.2074 34.7061 16.0205C33.877 15.7979 32.2539 15.6602 29.9688 15.5752C28.8818 15.5342 27.7187 15.5078 26.5557 15.4932C26.1484 15.4873 25.7705 15.4844 25.4307 15.4814H24.5693C24.2295 15.4844 23.8516 15.4873 23.4443 15.4932C22.2812 15.5078 21.1182 15.5342 20.0312 15.5752C17.7461 15.6631 16.1201 15.8008 15.2939 16.0205C14.6031 16.207 13.9734 16.5717 13.468 17.0782C12.9626 17.5846 12.5991 18.2151 12.4141 18.9062C12.2354 19.5684 12.1094 20.4502 12.0215 21.5078C11.957 22.2754 11.916 23.0898 11.8926 23.9072C11.8838 24.1914 11.8809 24.458 11.8779 24.6953C11.8779 24.7803 11.875 24.8535 11.875 24.918V25.082C11.875 25.1465 11.875 25.2197 11.8779 25.3047C11.8809 25.542 11.8867 25.8086 11.8926 26.0928C11.916 26.9102 11.957 27.7246 12.0215 28.4922C12.1094 29.5498 12.2383 30.4316 12.4141 31.0938C12.7891 32.4971 13.8906 33.6045 15.2939 33.9795C16.1201 34.2021 17.7461 34.3398 20.0312 34.4248C21.1182 34.4658 22.2812 34.4922 23.4443 34.5068C23.8516 34.5127 24.2295 34.5156 24.5693 34.5186H25.4307C25.7705 34.5156 26.1484 34.5127 26.5557 34.5068C27.7187 34.4922 28.8818 34.4658 29.9688 34.4248C32.2539 34.3369 33.8799 34.1992 34.7061 33.9795C36.1094 33.6045 37.2109 32.5 37.5859 31.0938C37.7646 30.4316 37.8906 29.5498 37.9785 28.4922C38.043 27.7246 38.084 26.9102 38.1074 26.0928C38.1162 25.8086 38.1191 25.542 38.1221 25.3047C38.1221 25.2197 38.125 25.1465 38.125 25.082V24.918ZM36.0156 25.0703C36.0156 25.1318 36.0156 25.1992 36.0127 25.2783C36.0098 25.5068 36.0039 25.7588 35.998 26.0312C35.9775 26.8105 35.9365 27.5898 35.875 28.3135C35.7959 29.2568 35.6846 30.0303 35.5469 30.5488C35.3652 31.2256 34.832 31.7617 34.1582 31.9404C33.543 32.1045 31.9932 32.2363 29.8867 32.3154C28.8203 32.3564 27.6719 32.3828 26.5264 32.3975C26.125 32.4033 25.7529 32.4062 25.4189 32.4062H24.5811L23.4736 32.3975C22.3281 32.3828 21.1826 32.3564 20.1133 32.3154C18.0068 32.2334 16.4541 32.1045 15.8418 31.9404C15.168 31.7588 14.6348 31.2256 14.4531 30.5488C14.3154 30.0303 14.2041 29.2568 14.125 28.3135C14.0635 27.5898 14.0254 26.8105 14.002 26.0312C13.9932 25.7588 13.9902 25.5039 13.9873 25.2783C13.9873 25.1992 13.9844 25.1289 13.9844 25.0703V24.9297C13.9844 24.8682 13.9844 24.8008 13.9873 24.7217C13.9902 24.4932 13.9961 24.2412 14.002 23.9687C14.0225 23.1895 14.0635 22.4102 14.125 21.6865C14.2041 20.7432 14.3154 19.9697 14.4531 19.4512C14.6348 18.7744 15.168 18.2383 15.8418 18.0596C16.457 17.8955 18.0068 17.7637 20.1133 17.6846C21.1797 17.6436 22.3281 17.6172 23.4736 17.6025C23.875 17.5967 24.2471 17.5938 24.5811 17.5938H25.4189L26.5264 17.6025C27.6719 17.6172 28.8174 17.6436 29.8867 17.6846C31.9932 17.7666 33.5459 17.8955 34.1582 18.0596C34.832 18.2412 35.3652 18.7744 35.5469 19.4512C35.6846 19.9697 35.7959 20.7432 35.875 21.6865C35.9365 22.4102 35.9746 23.1895 35.998 23.9687C36.0068 24.2412 36.0098 24.4961 36.0127 24.7217C36.0127 24.8008 36.0156 24.8711 36.0156 24.9297V25.0703ZM22.3926 28.9258L29.1895 24.9707L22.3926 21.0742V28.9258Z" fill="black"/>
</svg>
